G04 #@! TF.GenerationSoftware,KiCad,Pcbnew,(5.1.5-0-10_14)*
G04 #@! TF.CreationDate,2020-01-08T22:19:55-03:00*
G04 #@! TF.ProjectId,breaboard_power_supply,62726561-626f-4617-9264-5f706f776572,1*
G04 #@! TF.SameCoordinates,Original*
G04 #@! TF.FileFunction,Legend,Bot*
G04 #@! TF.FilePolarity,Positive*
%FSLAX46Y46*%
G04 Gerber Fmt 4.6, Leading zero omitted, Abs format (unit mm)*
G04 Created by KiCad (PCBNEW (5.1.5-0-10_14)) date 2020-01-08 22:19:55*
%MOMM*%
%LPD*%
G04 APERTURE LIST*
%ADD10C,0.250000*%
%ADD11C,0.010000*%
G04 APERTURE END LIST*
D10*
X107612428Y-138818476D02*
X107564809Y-138675619D01*
X107517190Y-138628000D01*
X107421952Y-138580380D01*
X107279095Y-138580380D01*
X107183857Y-138628000D01*
X107136238Y-138675619D01*
X107088619Y-138770857D01*
X107088619Y-139151809D01*
X108088619Y-139151809D01*
X108088619Y-138818476D01*
X108041000Y-138723238D01*
X107993380Y-138675619D01*
X107898142Y-138628000D01*
X107802904Y-138628000D01*
X107707666Y-138675619D01*
X107660047Y-138723238D01*
X107612428Y-138818476D01*
X107612428Y-139151809D01*
X107088619Y-138151809D02*
X107755285Y-138151809D01*
X107564809Y-138151809D02*
X107660047Y-138104190D01*
X107707666Y-138056571D01*
X107755285Y-137961333D01*
X107755285Y-137866095D01*
X107136238Y-137151809D02*
X107088619Y-137247047D01*
X107088619Y-137437523D01*
X107136238Y-137532761D01*
X107231476Y-137580380D01*
X107612428Y-137580380D01*
X107707666Y-137532761D01*
X107755285Y-137437523D01*
X107755285Y-137247047D01*
X107707666Y-137151809D01*
X107612428Y-137104190D01*
X107517190Y-137104190D01*
X107421952Y-137580380D01*
X107088619Y-136247047D02*
X107612428Y-136247047D01*
X107707666Y-136294666D01*
X107755285Y-136389904D01*
X107755285Y-136580380D01*
X107707666Y-136675619D01*
X107136238Y-136247047D02*
X107088619Y-136342285D01*
X107088619Y-136580380D01*
X107136238Y-136675619D01*
X107231476Y-136723238D01*
X107326714Y-136723238D01*
X107421952Y-136675619D01*
X107469571Y-136580380D01*
X107469571Y-136342285D01*
X107517190Y-136247047D01*
X107088619Y-135342285D02*
X108088619Y-135342285D01*
X107136238Y-135342285D02*
X107088619Y-135437523D01*
X107088619Y-135628000D01*
X107136238Y-135723238D01*
X107183857Y-135770857D01*
X107279095Y-135818476D01*
X107564809Y-135818476D01*
X107660047Y-135770857D01*
X107707666Y-135723238D01*
X107755285Y-135628000D01*
X107755285Y-135437523D01*
X107707666Y-135342285D01*
X107088619Y-134866095D02*
X108088619Y-134866095D01*
X107707666Y-134866095D02*
X107755285Y-134770857D01*
X107755285Y-134580380D01*
X107707666Y-134485142D01*
X107660047Y-134437523D01*
X107564809Y-134389904D01*
X107279095Y-134389904D01*
X107183857Y-134437523D01*
X107136238Y-134485142D01*
X107088619Y-134580380D01*
X107088619Y-134770857D01*
X107136238Y-134866095D01*
X107088619Y-133818476D02*
X107136238Y-133913714D01*
X107183857Y-133961333D01*
X107279095Y-134008952D01*
X107564809Y-134008952D01*
X107660047Y-133961333D01*
X107707666Y-133913714D01*
X107755285Y-133818476D01*
X107755285Y-133675619D01*
X107707666Y-133580380D01*
X107660047Y-133532761D01*
X107564809Y-133485142D01*
X107279095Y-133485142D01*
X107183857Y-133532761D01*
X107136238Y-133580380D01*
X107088619Y-133675619D01*
X107088619Y-133818476D01*
X107088619Y-132628000D02*
X107612428Y-132628000D01*
X107707666Y-132675619D01*
X107755285Y-132770857D01*
X107755285Y-132961333D01*
X107707666Y-133056571D01*
X107136238Y-132628000D02*
X107088619Y-132723238D01*
X107088619Y-132961333D01*
X107136238Y-133056571D01*
X107231476Y-133104190D01*
X107326714Y-133104190D01*
X107421952Y-133056571D01*
X107469571Y-132961333D01*
X107469571Y-132723238D01*
X107517190Y-132628000D01*
X107088619Y-132151809D02*
X107755285Y-132151809D01*
X107564809Y-132151809D02*
X107660047Y-132104190D01*
X107707666Y-132056571D01*
X107755285Y-131961333D01*
X107755285Y-131866095D01*
X107088619Y-131104190D02*
X108088619Y-131104190D01*
X107136238Y-131104190D02*
X107088619Y-131199428D01*
X107088619Y-131389904D01*
X107136238Y-131485142D01*
X107183857Y-131532761D01*
X107279095Y-131580380D01*
X107564809Y-131580380D01*
X107660047Y-131532761D01*
X107707666Y-131485142D01*
X107755285Y-131389904D01*
X107755285Y-131199428D01*
X107707666Y-131104190D01*
X105338619Y-139961333D02*
X106338619Y-139961333D01*
X106338619Y-139580380D01*
X106291000Y-139485142D01*
X106243380Y-139437523D01*
X106148142Y-139389904D01*
X106005285Y-139389904D01*
X105910047Y-139437523D01*
X105862428Y-139485142D01*
X105814809Y-139580380D01*
X105814809Y-139961333D01*
X105338619Y-138818476D02*
X105386238Y-138913714D01*
X105433857Y-138961333D01*
X105529095Y-139008952D01*
X105814809Y-139008952D01*
X105910047Y-138961333D01*
X105957666Y-138913714D01*
X106005285Y-138818476D01*
X106005285Y-138675619D01*
X105957666Y-138580380D01*
X105910047Y-138532761D01*
X105814809Y-138485142D01*
X105529095Y-138485142D01*
X105433857Y-138532761D01*
X105386238Y-138580380D01*
X105338619Y-138675619D01*
X105338619Y-138818476D01*
X106005285Y-138151809D02*
X105338619Y-137961333D01*
X105814809Y-137770857D01*
X105338619Y-137580380D01*
X106005285Y-137389904D01*
X105386238Y-136628000D02*
X105338619Y-136723238D01*
X105338619Y-136913714D01*
X105386238Y-137008952D01*
X105481476Y-137056571D01*
X105862428Y-137056571D01*
X105957666Y-137008952D01*
X106005285Y-136913714D01*
X106005285Y-136723238D01*
X105957666Y-136628000D01*
X105862428Y-136580380D01*
X105767190Y-136580380D01*
X105671952Y-137056571D01*
X105338619Y-136151809D02*
X106005285Y-136151809D01*
X105814809Y-136151809D02*
X105910047Y-136104190D01*
X105957666Y-136056571D01*
X106005285Y-135961333D01*
X106005285Y-135866095D01*
X105386238Y-134818476D02*
X105338619Y-134675619D01*
X105338619Y-134437523D01*
X105386238Y-134342285D01*
X105433857Y-134294666D01*
X105529095Y-134247047D01*
X105624333Y-134247047D01*
X105719571Y-134294666D01*
X105767190Y-134342285D01*
X105814809Y-134437523D01*
X105862428Y-134628000D01*
X105910047Y-134723238D01*
X105957666Y-134770857D01*
X106052904Y-134818476D01*
X106148142Y-134818476D01*
X106243380Y-134770857D01*
X106291000Y-134723238D01*
X106338619Y-134628000D01*
X106338619Y-134389904D01*
X106291000Y-134247047D01*
X106005285Y-133389904D02*
X105338619Y-133389904D01*
X106005285Y-133818476D02*
X105481476Y-133818476D01*
X105386238Y-133770857D01*
X105338619Y-133675619D01*
X105338619Y-133532761D01*
X105386238Y-133437523D01*
X105433857Y-133389904D01*
X106005285Y-132913714D02*
X105005285Y-132913714D01*
X105957666Y-132913714D02*
X106005285Y-132818476D01*
X106005285Y-132628000D01*
X105957666Y-132532761D01*
X105910047Y-132485142D01*
X105814809Y-132437523D01*
X105529095Y-132437523D01*
X105433857Y-132485142D01*
X105386238Y-132532761D01*
X105338619Y-132628000D01*
X105338619Y-132818476D01*
X105386238Y-132913714D01*
X106005285Y-132008952D02*
X105005285Y-132008952D01*
X105957666Y-132008952D02*
X106005285Y-131913714D01*
X106005285Y-131723238D01*
X105957666Y-131628000D01*
X105910047Y-131580380D01*
X105814809Y-131532761D01*
X105529095Y-131532761D01*
X105433857Y-131580380D01*
X105386238Y-131628000D01*
X105338619Y-131723238D01*
X105338619Y-131913714D01*
X105386238Y-132008952D01*
X105338619Y-130961333D02*
X105386238Y-131056571D01*
X105481476Y-131104190D01*
X106338619Y-131104190D01*
X106005285Y-130675619D02*
X105338619Y-130437523D01*
X106005285Y-130199428D02*
X105338619Y-130437523D01*
X105100523Y-130532761D01*
X105052904Y-130580380D01*
X105005285Y-130675619D01*
X104255285Y-136556571D02*
X103588619Y-136318476D01*
X104255285Y-136080380D01*
X103588619Y-135175619D02*
X103588619Y-135747047D01*
X103588619Y-135461333D02*
X104588619Y-135461333D01*
X104445761Y-135556571D01*
X104350523Y-135651809D01*
X104302904Y-135747047D01*
X103683857Y-134747047D02*
X103636238Y-134699428D01*
X103588619Y-134747047D01*
X103636238Y-134794666D01*
X103683857Y-134747047D01*
X103588619Y-134747047D01*
X104588619Y-134080380D02*
X104588619Y-133985142D01*
X104541000Y-133889904D01*
X104493380Y-133842285D01*
X104398142Y-133794666D01*
X104207666Y-133747047D01*
X103969571Y-133747047D01*
X103779095Y-133794666D01*
X103683857Y-133842285D01*
X103636238Y-133889904D01*
X103588619Y-133985142D01*
X103588619Y-134080380D01*
X103636238Y-134175619D01*
X103683857Y-134223238D01*
X103779095Y-134270857D01*
X103969571Y-134318476D01*
X104207666Y-134318476D01*
X104398142Y-134270857D01*
X104493380Y-134223238D01*
X104541000Y-134175619D01*
X104588619Y-134080380D01*
D11*
G36*
X109947625Y-111408904D02*
G01*
X109891205Y-111364049D01*
X109720238Y-111265894D01*
X109631328Y-111302125D01*
X109601786Y-111487151D01*
X109601000Y-111548333D01*
X109628795Y-111761889D01*
X109704132Y-111844556D01*
X109707634Y-111844666D01*
X109829337Y-111779674D01*
X109929355Y-111660383D01*
X109998509Y-111510185D01*
X109947625Y-111408904D01*
G37*
X109947625Y-111408904D02*
X109891205Y-111364049D01*
X109720238Y-111265894D01*
X109631328Y-111302125D01*
X109601786Y-111487151D01*
X109601000Y-111548333D01*
X109628795Y-111761889D01*
X109704132Y-111844556D01*
X109707634Y-111844666D01*
X109829337Y-111779674D01*
X109929355Y-111660383D01*
X109998509Y-111510185D01*
X109947625Y-111408904D01*
G36*
X109909049Y-116459000D02*
G01*
X109819476Y-116346812D01*
X109772990Y-116332000D01*
X109707467Y-116400561D01*
X109687820Y-116554294D01*
X109714394Y-116715274D01*
X109770931Y-116798036D01*
X109861784Y-116784660D01*
X109920709Y-116665113D01*
X109922021Y-116502441D01*
X109909049Y-116459000D01*
G37*
X109909049Y-116459000D02*
X109819476Y-116346812D01*
X109772990Y-116332000D01*
X109707467Y-116400561D01*
X109687820Y-116554294D01*
X109714394Y-116715274D01*
X109770931Y-116798036D01*
X109861784Y-116784660D01*
X109920709Y-116665113D01*
X109922021Y-116502441D01*
X109909049Y-116459000D01*
G36*
X109920264Y-119221823D02*
G01*
X109832678Y-119133497D01*
X109711396Y-119101432D01*
X109354742Y-119069272D01*
X109131750Y-119139076D01*
X109039161Y-119313182D01*
X109065514Y-119564363D01*
X109130695Y-119653958D01*
X109290164Y-119691010D01*
X109500193Y-119691363D01*
X109742032Y-119674389D01*
X109862663Y-119626373D01*
X109910208Y-119515511D01*
X109923063Y-119411909D01*
X109920264Y-119221823D01*
G37*
X109920264Y-119221823D02*
X109832678Y-119133497D01*
X109711396Y-119101432D01*
X109354742Y-119069272D01*
X109131750Y-119139076D01*
X109039161Y-119313182D01*
X109065514Y-119564363D01*
X109130695Y-119653958D01*
X109290164Y-119691010D01*
X109500193Y-119691363D01*
X109742032Y-119674389D01*
X109862663Y-119626373D01*
X109910208Y-119515511D01*
X109923063Y-119411909D01*
X109920264Y-119221823D01*
G36*
X109638970Y-125027487D02*
G01*
X109347786Y-124824094D01*
X109137235Y-124704532D01*
X108954325Y-124648619D01*
X108746069Y-124636170D01*
X108621006Y-124639727D01*
X108343469Y-124669522D01*
X108123354Y-124751005D01*
X107923547Y-124910996D01*
X107706936Y-125176313D01*
X107535291Y-125424315D01*
X107380572Y-125720619D01*
X107332532Y-126023627D01*
X107374107Y-126381247D01*
X107455383Y-126554680D01*
X107615361Y-126765022D01*
X107680077Y-126833112D01*
X107870742Y-126999821D01*
X108038789Y-127064659D01*
X108269318Y-127056409D01*
X108320823Y-127049811D01*
X108373333Y-127034844D01*
X108373333Y-126322666D01*
X108207352Y-126282980D01*
X108161666Y-126153333D01*
X108101798Y-126011829D01*
X107992333Y-125984000D01*
X107850829Y-125924131D01*
X107823000Y-125814666D01*
X107882868Y-125673162D01*
X107992333Y-125645333D01*
X108133837Y-125585465D01*
X108161666Y-125476000D01*
X108211275Y-125343215D01*
X108373333Y-125306666D01*
X108539314Y-125346353D01*
X108585000Y-125476000D01*
X108644868Y-125617504D01*
X108754333Y-125645333D01*
X108895837Y-125705202D01*
X108923666Y-125814666D01*
X108863798Y-125956171D01*
X108754333Y-125984000D01*
X108612829Y-126043868D01*
X108585000Y-126153333D01*
X108535391Y-126286118D01*
X108373333Y-126322666D01*
X108373333Y-127034844D01*
X108802417Y-126912537D01*
X109181273Y-126641310D01*
X109424934Y-126305683D01*
X109614540Y-126019833D01*
X109845053Y-125751487D01*
X109912544Y-125687666D01*
X110201671Y-125433666D01*
X109638970Y-125027487D01*
G37*
X109638970Y-125027487D02*
X109347786Y-124824094D01*
X109137235Y-124704532D01*
X108954325Y-124648619D01*
X108746069Y-124636170D01*
X108621006Y-124639727D01*
X108343469Y-124669522D01*
X108123354Y-124751005D01*
X107923547Y-124910996D01*
X107706936Y-125176313D01*
X107535291Y-125424315D01*
X107380572Y-125720619D01*
X107332532Y-126023627D01*
X107374107Y-126381247D01*
X107455383Y-126554680D01*
X107615361Y-126765022D01*
X107680077Y-126833112D01*
X107870742Y-126999821D01*
X108038789Y-127064659D01*
X108269318Y-127056409D01*
X108320823Y-127049811D01*
X108373333Y-127034844D01*
X108373333Y-126322666D01*
X108207352Y-126282980D01*
X108161666Y-126153333D01*
X108101798Y-126011829D01*
X107992333Y-125984000D01*
X107850829Y-125924131D01*
X107823000Y-125814666D01*
X107882868Y-125673162D01*
X107992333Y-125645333D01*
X108133837Y-125585465D01*
X108161666Y-125476000D01*
X108211275Y-125343215D01*
X108373333Y-125306666D01*
X108539314Y-125346353D01*
X108585000Y-125476000D01*
X108644868Y-125617504D01*
X108754333Y-125645333D01*
X108895837Y-125705202D01*
X108923666Y-125814666D01*
X108863798Y-125956171D01*
X108754333Y-125984000D01*
X108612829Y-126043868D01*
X108585000Y-126153333D01*
X108535391Y-126286118D01*
X108373333Y-126322666D01*
X108373333Y-127034844D01*
X108802417Y-126912537D01*
X109181273Y-126641310D01*
X109424934Y-126305683D01*
X109614540Y-126019833D01*
X109845053Y-125751487D01*
X109912544Y-125687666D01*
X110201671Y-125433666D01*
X109638970Y-125027487D01*
G36*
X105367666Y-109558666D02*
G01*
X105367666Y-129116666D01*
X109082820Y-129116666D01*
X109082820Y-128156230D01*
X108710867Y-128155000D01*
X108410861Y-128141500D01*
X108217139Y-128118096D01*
X108161666Y-128092730D01*
X108092973Y-128024620D01*
X108034666Y-128016000D01*
X107892264Y-127953949D01*
X107697271Y-127797957D01*
X107493542Y-127593265D01*
X107324935Y-127385114D01*
X107235305Y-127218744D01*
X107230333Y-127186267D01*
X107189164Y-127011866D01*
X107150232Y-126953433D01*
X107074360Y-126826732D01*
X106983128Y-126609121D01*
X106956866Y-126534333D01*
X106888207Y-126088285D01*
X106946268Y-125575717D01*
X107126462Y-125037025D01*
X107127136Y-125035511D01*
X107384983Y-124613906D01*
X107760000Y-124204022D01*
X108204290Y-123855339D01*
X108362008Y-123759862D01*
X108571813Y-123652018D01*
X108762184Y-123587374D01*
X108985461Y-123556919D01*
X109293989Y-123551645D01*
X109541732Y-123556818D01*
X109927659Y-123572408D01*
X110200088Y-123603342D01*
X110414846Y-123663102D01*
X110627757Y-123765173D01*
X110786333Y-123857428D01*
X110786333Y-122512666D01*
X109728000Y-122512666D01*
X109288790Y-122511124D01*
X108991397Y-122503563D01*
X108808315Y-122485582D01*
X108712035Y-122452780D01*
X108675049Y-122400756D01*
X108669666Y-122343333D01*
X108689879Y-122245476D01*
X108777268Y-122194498D01*
X108971964Y-122175806D01*
X109135333Y-122174000D01*
X109601000Y-122174000D01*
X109601000Y-121750666D01*
X109609915Y-121496749D01*
X109647756Y-121370111D01*
X109731167Y-121329145D01*
X109770333Y-121327333D01*
X109871900Y-121349621D01*
X109922555Y-121444224D01*
X109938942Y-121652750D01*
X109939666Y-121750666D01*
X109945216Y-122001269D01*
X109979336Y-122126236D01*
X110068235Y-122169246D01*
X110193666Y-122174000D01*
X110447666Y-122174000D01*
X110447666Y-121623666D01*
X110452944Y-121325835D01*
X110476452Y-121159787D01*
X110529704Y-121088105D01*
X110617000Y-121073333D01*
X110699335Y-121086726D01*
X110749627Y-121148977D01*
X110775666Y-121293196D01*
X110785244Y-121552495D01*
X110786333Y-121793000D01*
X110786333Y-120819333D01*
X108669666Y-120819333D01*
X108669666Y-120396000D01*
X109530371Y-120396000D01*
X109530371Y-120142000D01*
X109136255Y-120118029D01*
X108880145Y-120030431D01*
X108735529Y-119855679D01*
X108675898Y-119570247D01*
X108669666Y-119378178D01*
X108680270Y-119080131D01*
X108720476Y-118905348D01*
X108802882Y-118808612D01*
X108833434Y-118790312D01*
X109007908Y-118741153D01*
X109279367Y-118709351D01*
X109288702Y-118709031D01*
X109288702Y-118448666D01*
X108970699Y-118445862D01*
X108785905Y-118429215D01*
X108698200Y-118386375D01*
X108671467Y-118304993D01*
X108669666Y-118237000D01*
X108685681Y-118105879D01*
X108764107Y-118044090D01*
X108950520Y-118026048D01*
X109046683Y-118025333D01*
X109413019Y-117991083D01*
X109487954Y-117965210D01*
X109487954Y-117263333D01*
X109138856Y-117249179D01*
X108884315Y-117210482D01*
X108771266Y-117161733D01*
X108716000Y-117023348D01*
X108681134Y-116778701D01*
X108669456Y-116489944D01*
X108683754Y-116219231D01*
X108721058Y-116042591D01*
X108817115Y-115911154D01*
X108919950Y-115923943D01*
X108993403Y-116061387D01*
X109008333Y-116198075D01*
X109038970Y-116537247D01*
X109131246Y-116719868D01*
X109229058Y-116755333D01*
X109301934Y-116703230D01*
X109338896Y-116529723D01*
X109347000Y-116289666D01*
X109347000Y-115824000D01*
X109372400Y-115824000D01*
X109372400Y-115570000D01*
X109027414Y-115566703D01*
X108818234Y-115551435D01*
X108711378Y-115516128D01*
X108673365Y-115452713D01*
X108669666Y-115400666D01*
X108689266Y-115303976D01*
X108774489Y-115252937D01*
X108964975Y-115233568D01*
X109149833Y-115231333D01*
X109524020Y-115202669D01*
X109756459Y-115114021D01*
X109784833Y-115091211D01*
X109925763Y-114903382D01*
X109908148Y-114748679D01*
X109740806Y-114634456D01*
X109432553Y-114568070D01*
X109140899Y-114554000D01*
X108869838Y-114546823D01*
X108727899Y-114515725D01*
X108675143Y-114446354D01*
X108669666Y-114384666D01*
X108683940Y-114299949D01*
X108749575Y-114249343D01*
X108900798Y-114224205D01*
X109171833Y-114215890D01*
X109340075Y-114215333D01*
X109572664Y-114217354D01*
X109572664Y-113950383D01*
X109260502Y-113944600D01*
X108979776Y-113902215D01*
X108786797Y-113825637D01*
X108746878Y-113786111D01*
X108707928Y-113640007D01*
X108688375Y-113387009D01*
X108690106Y-113157000D01*
X108709084Y-112871745D01*
X108745694Y-112714378D01*
X108816388Y-112643455D01*
X108902500Y-112621945D01*
X109054582Y-112646921D01*
X109088934Y-112785232D01*
X109006619Y-113041926D01*
X108995885Y-113065842D01*
X108950064Y-113296119D01*
X109054845Y-113451063D01*
X109167419Y-113485571D01*
X109167419Y-112253214D01*
X108897067Y-112174724D01*
X108739968Y-111997274D01*
X108674785Y-111704390D01*
X108669666Y-111552429D01*
X108701327Y-111184653D01*
X108795531Y-110969248D01*
X108802714Y-110961714D01*
X108956412Y-110839579D01*
X109046311Y-110854119D01*
X109078324Y-111014040D01*
X109058367Y-111328050D01*
X109057398Y-111336666D01*
X109030011Y-111617704D01*
X109034887Y-111770040D01*
X109080939Y-111832688D01*
X109173462Y-111844666D01*
X109270250Y-111827202D01*
X109322546Y-111748861D01*
X109343645Y-111570719D01*
X109347000Y-111336666D01*
X109347000Y-110828666D01*
X109657833Y-110828666D01*
X109977265Y-110879594D01*
X110176803Y-111041301D01*
X110268764Y-111327171D01*
X110278333Y-111502940D01*
X110248729Y-111848780D01*
X110140537Y-112067955D01*
X109924685Y-112191198D01*
X109572366Y-112249216D01*
X109167419Y-112253214D01*
X109167419Y-113485571D01*
X109308226Y-113528734D01*
X109482754Y-113538000D01*
X109720102Y-113525108D01*
X109841717Y-113469143D01*
X109900328Y-113344169D01*
X109903744Y-113330934D01*
X109891662Y-113072787D01*
X109827077Y-112940214D01*
X109741980Y-112736562D01*
X109780144Y-112583002D01*
X109930937Y-112522001D01*
X109931792Y-112522000D01*
X110114618Y-112574474D01*
X110225682Y-112744291D01*
X110274292Y-113050047D01*
X110278333Y-113214315D01*
X110268991Y-113502991D01*
X110228835Y-113676647D01*
X110139672Y-113789124D01*
X110066064Y-113842514D01*
X109859955Y-113917156D01*
X109572664Y-113950383D01*
X109572664Y-114217354D01*
X109748486Y-114218883D01*
X110016931Y-114242620D01*
X110174777Y-114306171D01*
X110251392Y-114429166D01*
X110276141Y-114631232D01*
X110278333Y-114842458D01*
X110262485Y-115144094D01*
X110220894Y-115374270D01*
X110176733Y-115468400D01*
X110033435Y-115523296D01*
X109749393Y-115558324D01*
X109372400Y-115570000D01*
X109372400Y-115824000D01*
X109657833Y-115824000D01*
X109973696Y-115872560D01*
X110171587Y-116028841D01*
X110265685Y-116308749D01*
X110278333Y-116520022D01*
X110263516Y-116868131D01*
X110198303Y-117087193D01*
X110051551Y-117206495D01*
X109792117Y-117255325D01*
X109487954Y-117263333D01*
X109487954Y-117965210D01*
X109685789Y-117896903D01*
X109835500Y-117755645D01*
X109855000Y-117673076D01*
X109912791Y-117548736D01*
X110066666Y-117517333D01*
X110210387Y-117539813D01*
X110268787Y-117640569D01*
X110278333Y-117810368D01*
X110234803Y-118095073D01*
X110091732Y-118287937D01*
X109830402Y-118401034D01*
X109432095Y-118446438D01*
X109288702Y-118448666D01*
X109288702Y-118709031D01*
X109474000Y-118702666D01*
X109850417Y-118718343D01*
X110089000Y-118780682D01*
X110219582Y-118912647D01*
X110271994Y-119137202D01*
X110278333Y-119321807D01*
X110250403Y-119705892D01*
X110151063Y-119953192D01*
X109956991Y-120089280D01*
X109644863Y-120139734D01*
X109530371Y-120142000D01*
X109530371Y-120396000D01*
X110786333Y-120396000D01*
X110786333Y-120819333D01*
X110786333Y-121793000D01*
X110786333Y-122512666D01*
X110786333Y-123857428D01*
X111071590Y-124038813D01*
X111327994Y-124218868D01*
X111463666Y-124327396D01*
X111678582Y-124497393D01*
X111940087Y-124675113D01*
X111992833Y-124707430D01*
X112186035Y-124834738D01*
X112298590Y-124931862D01*
X112310333Y-124954237D01*
X112385781Y-125034354D01*
X112581124Y-125128042D01*
X112849858Y-125217478D01*
X113145480Y-125284838D01*
X113192865Y-125292481D01*
X113406888Y-125340362D01*
X113490533Y-125410367D01*
X113438573Y-125517480D01*
X113245782Y-125676684D01*
X113001089Y-125842238D01*
X112491340Y-126078364D01*
X111941389Y-126167528D01*
X111388244Y-126112270D01*
X110868913Y-125915128D01*
X110519572Y-125671941D01*
X110381256Y-125615513D01*
X110295471Y-125675015D01*
X110318113Y-125810467D01*
X110320470Y-125814348D01*
X110379369Y-125963738D01*
X110405607Y-126070088D01*
X110515896Y-126341882D01*
X110711571Y-126593097D01*
X110941570Y-126765320D01*
X111045475Y-126802062D01*
X111287657Y-126850498D01*
X111127118Y-127165180D01*
X110946479Y-127412035D01*
X110663589Y-127677655D01*
X110485277Y-127811431D01*
X110003974Y-128143000D01*
X109082820Y-128156230D01*
X109082820Y-129116666D01*
X114257666Y-129116666D01*
X114257666Y-109558666D01*
X105367666Y-109558666D01*
G37*
X105367666Y-109558666D02*
X105367666Y-129116666D01*
X109082820Y-129116666D01*
X109082820Y-128156230D01*
X108710867Y-128155000D01*
X108410861Y-128141500D01*
X108217139Y-128118096D01*
X108161666Y-128092730D01*
X108092973Y-128024620D01*
X108034666Y-128016000D01*
X107892264Y-127953949D01*
X107697271Y-127797957D01*
X107493542Y-127593265D01*
X107324935Y-127385114D01*
X107235305Y-127218744D01*
X107230333Y-127186267D01*
X107189164Y-127011866D01*
X107150232Y-126953433D01*
X107074360Y-126826732D01*
X106983128Y-126609121D01*
X106956866Y-126534333D01*
X106888207Y-126088285D01*
X106946268Y-125575717D01*
X107126462Y-125037025D01*
X107127136Y-125035511D01*
X107384983Y-124613906D01*
X107760000Y-124204022D01*
X108204290Y-123855339D01*
X108362008Y-123759862D01*
X108571813Y-123652018D01*
X108762184Y-123587374D01*
X108985461Y-123556919D01*
X109293989Y-123551645D01*
X109541732Y-123556818D01*
X109927659Y-123572408D01*
X110200088Y-123603342D01*
X110414846Y-123663102D01*
X110627757Y-123765173D01*
X110786333Y-123857428D01*
X110786333Y-122512666D01*
X109728000Y-122512666D01*
X109288790Y-122511124D01*
X108991397Y-122503563D01*
X108808315Y-122485582D01*
X108712035Y-122452780D01*
X108675049Y-122400756D01*
X108669666Y-122343333D01*
X108689879Y-122245476D01*
X108777268Y-122194498D01*
X108971964Y-122175806D01*
X109135333Y-122174000D01*
X109601000Y-122174000D01*
X109601000Y-121750666D01*
X109609915Y-121496749D01*
X109647756Y-121370111D01*
X109731167Y-121329145D01*
X109770333Y-121327333D01*
X109871900Y-121349621D01*
X109922555Y-121444224D01*
X109938942Y-121652750D01*
X109939666Y-121750666D01*
X109945216Y-122001269D01*
X109979336Y-122126236D01*
X110068235Y-122169246D01*
X110193666Y-122174000D01*
X110447666Y-122174000D01*
X110447666Y-121623666D01*
X110452944Y-121325835D01*
X110476452Y-121159787D01*
X110529704Y-121088105D01*
X110617000Y-121073333D01*
X110699335Y-121086726D01*
X110749627Y-121148977D01*
X110775666Y-121293196D01*
X110785244Y-121552495D01*
X110786333Y-121793000D01*
X110786333Y-120819333D01*
X108669666Y-120819333D01*
X108669666Y-120396000D01*
X109530371Y-120396000D01*
X109530371Y-120142000D01*
X109136255Y-120118029D01*
X108880145Y-120030431D01*
X108735529Y-119855679D01*
X108675898Y-119570247D01*
X108669666Y-119378178D01*
X108680270Y-119080131D01*
X108720476Y-118905348D01*
X108802882Y-118808612D01*
X108833434Y-118790312D01*
X109007908Y-118741153D01*
X109279367Y-118709351D01*
X109288702Y-118709031D01*
X109288702Y-118448666D01*
X108970699Y-118445862D01*
X108785905Y-118429215D01*
X108698200Y-118386375D01*
X108671467Y-118304993D01*
X108669666Y-118237000D01*
X108685681Y-118105879D01*
X108764107Y-118044090D01*
X108950520Y-118026048D01*
X109046683Y-118025333D01*
X109413019Y-117991083D01*
X109487954Y-117965210D01*
X109487954Y-117263333D01*
X109138856Y-117249179D01*
X108884315Y-117210482D01*
X108771266Y-117161733D01*
X108716000Y-117023348D01*
X108681134Y-116778701D01*
X108669456Y-116489944D01*
X108683754Y-116219231D01*
X108721058Y-116042591D01*
X108817115Y-115911154D01*
X108919950Y-115923943D01*
X108993403Y-116061387D01*
X109008333Y-116198075D01*
X109038970Y-116537247D01*
X109131246Y-116719868D01*
X109229058Y-116755333D01*
X109301934Y-116703230D01*
X109338896Y-116529723D01*
X109347000Y-116289666D01*
X109347000Y-115824000D01*
X109372400Y-115824000D01*
X109372400Y-115570000D01*
X109027414Y-115566703D01*
X108818234Y-115551435D01*
X108711378Y-115516128D01*
X108673365Y-115452713D01*
X108669666Y-115400666D01*
X108689266Y-115303976D01*
X108774489Y-115252937D01*
X108964975Y-115233568D01*
X109149833Y-115231333D01*
X109524020Y-115202669D01*
X109756459Y-115114021D01*
X109784833Y-115091211D01*
X109925763Y-114903382D01*
X109908148Y-114748679D01*
X109740806Y-114634456D01*
X109432553Y-114568070D01*
X109140899Y-114554000D01*
X108869838Y-114546823D01*
X108727899Y-114515725D01*
X108675143Y-114446354D01*
X108669666Y-114384666D01*
X108683940Y-114299949D01*
X108749575Y-114249343D01*
X108900798Y-114224205D01*
X109171833Y-114215890D01*
X109340075Y-114215333D01*
X109572664Y-114217354D01*
X109572664Y-113950383D01*
X109260502Y-113944600D01*
X108979776Y-113902215D01*
X108786797Y-113825637D01*
X108746878Y-113786111D01*
X108707928Y-113640007D01*
X108688375Y-113387009D01*
X108690106Y-113157000D01*
X108709084Y-112871745D01*
X108745694Y-112714378D01*
X108816388Y-112643455D01*
X108902500Y-112621945D01*
X109054582Y-112646921D01*
X109088934Y-112785232D01*
X109006619Y-113041926D01*
X108995885Y-113065842D01*
X108950064Y-113296119D01*
X109054845Y-113451063D01*
X109167419Y-113485571D01*
X109167419Y-112253214D01*
X108897067Y-112174724D01*
X108739968Y-111997274D01*
X108674785Y-111704390D01*
X108669666Y-111552429D01*
X108701327Y-111184653D01*
X108795531Y-110969248D01*
X108802714Y-110961714D01*
X108956412Y-110839579D01*
X109046311Y-110854119D01*
X109078324Y-111014040D01*
X109058367Y-111328050D01*
X109057398Y-111336666D01*
X109030011Y-111617704D01*
X109034887Y-111770040D01*
X109080939Y-111832688D01*
X109173462Y-111844666D01*
X109270250Y-111827202D01*
X109322546Y-111748861D01*
X109343645Y-111570719D01*
X109347000Y-111336666D01*
X109347000Y-110828666D01*
X109657833Y-110828666D01*
X109977265Y-110879594D01*
X110176803Y-111041301D01*
X110268764Y-111327171D01*
X110278333Y-111502940D01*
X110248729Y-111848780D01*
X110140537Y-112067955D01*
X109924685Y-112191198D01*
X109572366Y-112249216D01*
X109167419Y-112253214D01*
X109167419Y-113485571D01*
X109308226Y-113528734D01*
X109482754Y-113538000D01*
X109720102Y-113525108D01*
X109841717Y-113469143D01*
X109900328Y-113344169D01*
X109903744Y-113330934D01*
X109891662Y-113072787D01*
X109827077Y-112940214D01*
X109741980Y-112736562D01*
X109780144Y-112583002D01*
X109930937Y-112522001D01*
X109931792Y-112522000D01*
X110114618Y-112574474D01*
X110225682Y-112744291D01*
X110274292Y-113050047D01*
X110278333Y-113214315D01*
X110268991Y-113502991D01*
X110228835Y-113676647D01*
X110139672Y-113789124D01*
X110066064Y-113842514D01*
X109859955Y-113917156D01*
X109572664Y-113950383D01*
X109572664Y-114217354D01*
X109748486Y-114218883D01*
X110016931Y-114242620D01*
X110174777Y-114306171D01*
X110251392Y-114429166D01*
X110276141Y-114631232D01*
X110278333Y-114842458D01*
X110262485Y-115144094D01*
X110220894Y-115374270D01*
X110176733Y-115468400D01*
X110033435Y-115523296D01*
X109749393Y-115558324D01*
X109372400Y-115570000D01*
X109372400Y-115824000D01*
X109657833Y-115824000D01*
X109973696Y-115872560D01*
X110171587Y-116028841D01*
X110265685Y-116308749D01*
X110278333Y-116520022D01*
X110263516Y-116868131D01*
X110198303Y-117087193D01*
X110051551Y-117206495D01*
X109792117Y-117255325D01*
X109487954Y-117263333D01*
X109487954Y-117965210D01*
X109685789Y-117896903D01*
X109835500Y-117755645D01*
X109855000Y-117673076D01*
X109912791Y-117548736D01*
X110066666Y-117517333D01*
X110210387Y-117539813D01*
X110268787Y-117640569D01*
X110278333Y-117810368D01*
X110234803Y-118095073D01*
X110091732Y-118287937D01*
X109830402Y-118401034D01*
X109432095Y-118446438D01*
X109288702Y-118448666D01*
X109288702Y-118709031D01*
X109474000Y-118702666D01*
X109850417Y-118718343D01*
X110089000Y-118780682D01*
X110219582Y-118912647D01*
X110271994Y-119137202D01*
X110278333Y-119321807D01*
X110250403Y-119705892D01*
X110151063Y-119953192D01*
X109956991Y-120089280D01*
X109644863Y-120139734D01*
X109530371Y-120142000D01*
X109530371Y-120396000D01*
X110786333Y-120396000D01*
X110786333Y-120819333D01*
X110786333Y-121793000D01*
X110786333Y-122512666D01*
X110786333Y-123857428D01*
X111071590Y-124038813D01*
X111327994Y-124218868D01*
X111463666Y-124327396D01*
X111678582Y-124497393D01*
X111940087Y-124675113D01*
X111992833Y-124707430D01*
X112186035Y-124834738D01*
X112298590Y-124931862D01*
X112310333Y-124954237D01*
X112385781Y-125034354D01*
X112581124Y-125128042D01*
X112849858Y-125217478D01*
X113145480Y-125284838D01*
X113192865Y-125292481D01*
X113406888Y-125340362D01*
X113490533Y-125410367D01*
X113438573Y-125517480D01*
X113245782Y-125676684D01*
X113001089Y-125842238D01*
X112491340Y-126078364D01*
X111941389Y-126167528D01*
X111388244Y-126112270D01*
X110868913Y-125915128D01*
X110519572Y-125671941D01*
X110381256Y-125615513D01*
X110295471Y-125675015D01*
X110318113Y-125810467D01*
X110320470Y-125814348D01*
X110379369Y-125963738D01*
X110405607Y-126070088D01*
X110515896Y-126341882D01*
X110711571Y-126593097D01*
X110941570Y-126765320D01*
X111045475Y-126802062D01*
X111287657Y-126850498D01*
X111127118Y-127165180D01*
X110946479Y-127412035D01*
X110663589Y-127677655D01*
X110485277Y-127811431D01*
X110003974Y-128143000D01*
X109082820Y-128156230D01*
X109082820Y-129116666D01*
X114257666Y-129116666D01*
X114257666Y-109558666D01*
X105367666Y-109558666D01*
M02*
