G04 #@! TF.GenerationSoftware,KiCad,Pcbnew,(5.1.5-0-10_14)*
G04 #@! TF.CreationDate,2020-01-08T22:19:55-03:00*
G04 #@! TF.ProjectId,breaboard_power_supply,62726561-626f-4617-9264-5f706f776572,1*
G04 #@! TF.SameCoordinates,Original*
G04 #@! TF.FileFunction,Soldermask,Bot*
G04 #@! TF.FilePolarity,Negative*
%FSLAX46Y46*%
G04 Gerber Fmt 4.6, Leading zero omitted, Abs format (unit mm)*
G04 Created by KiCad (PCBNEW (5.1.5-0-10_14)) date 2020-01-08 22:19:55*
%MOMM*%
%LPD*%
G04 APERTURE LIST*
%ADD10C,0.100000*%
G04 APERTURE END LIST*
D10*
G36*
X114615072Y-137893918D02*
G01*
X114860939Y-137995759D01*
X114972328Y-138070187D01*
X115082211Y-138143609D01*
X115270391Y-138331789D01*
X115418242Y-138553063D01*
X115520082Y-138798928D01*
X115572000Y-139059937D01*
X115572000Y-139326063D01*
X115520082Y-139587072D01*
X115446444Y-139764852D01*
X115418241Y-139832939D01*
X115270390Y-140054212D01*
X115082212Y-140242390D01*
X114860939Y-140390241D01*
X114860938Y-140390242D01*
X114860937Y-140390242D01*
X114615072Y-140492082D01*
X114354063Y-140544000D01*
X114087937Y-140544000D01*
X113826928Y-140492082D01*
X113581063Y-140390242D01*
X113581062Y-140390242D01*
X113581061Y-140390241D01*
X113359788Y-140242390D01*
X113171610Y-140054212D01*
X113023759Y-139832939D01*
X112995557Y-139764852D01*
X112921918Y-139587072D01*
X112870000Y-139326063D01*
X112870000Y-139059937D01*
X112921918Y-138798928D01*
X113023758Y-138553063D01*
X113171609Y-138331789D01*
X113359789Y-138143609D01*
X113469672Y-138070187D01*
X113581061Y-137995759D01*
X113826928Y-137893918D01*
X114087937Y-137842000D01*
X114354063Y-137842000D01*
X114615072Y-137893918D01*
G37*
G36*
X131177512Y-138168927D02*
G01*
X131326812Y-138198624D01*
X131490784Y-138266544D01*
X131638354Y-138365147D01*
X131763853Y-138490646D01*
X131862456Y-138638216D01*
X131930376Y-138802188D01*
X131965000Y-138976259D01*
X131965000Y-139153741D01*
X131930376Y-139327812D01*
X131862456Y-139491784D01*
X131763853Y-139639354D01*
X131638354Y-139764853D01*
X131490784Y-139863456D01*
X131326812Y-139931376D01*
X131177512Y-139961073D01*
X131152742Y-139966000D01*
X130975258Y-139966000D01*
X130950488Y-139961073D01*
X130801188Y-139931376D01*
X130637216Y-139863456D01*
X130489646Y-139764853D01*
X130364147Y-139639354D01*
X130265544Y-139491784D01*
X130197624Y-139327812D01*
X130163000Y-139153741D01*
X130163000Y-138976259D01*
X130197624Y-138802188D01*
X130265544Y-138638216D01*
X130364147Y-138490646D01*
X130489646Y-138365147D01*
X130637216Y-138266544D01*
X130801188Y-138198624D01*
X130950488Y-138168927D01*
X130975258Y-138164000D01*
X131152742Y-138164000D01*
X131177512Y-138168927D01*
G37*
G36*
X128637512Y-138168927D02*
G01*
X128786812Y-138198624D01*
X128950784Y-138266544D01*
X129098354Y-138365147D01*
X129223853Y-138490646D01*
X129322456Y-138638216D01*
X129390376Y-138802188D01*
X129425000Y-138976259D01*
X129425000Y-139153741D01*
X129390376Y-139327812D01*
X129322456Y-139491784D01*
X129223853Y-139639354D01*
X129098354Y-139764853D01*
X128950784Y-139863456D01*
X128786812Y-139931376D01*
X128637512Y-139961073D01*
X128612742Y-139966000D01*
X128435258Y-139966000D01*
X128410488Y-139961073D01*
X128261188Y-139931376D01*
X128097216Y-139863456D01*
X127949646Y-139764853D01*
X127824147Y-139639354D01*
X127725544Y-139491784D01*
X127657624Y-139327812D01*
X127623000Y-139153741D01*
X127623000Y-138976259D01*
X127657624Y-138802188D01*
X127725544Y-138638216D01*
X127824147Y-138490646D01*
X127949646Y-138365147D01*
X128097216Y-138266544D01*
X128261188Y-138198624D01*
X128410488Y-138168927D01*
X128435258Y-138164000D01*
X128612742Y-138164000D01*
X128637512Y-138168927D01*
G37*
G36*
X131177512Y-135628927D02*
G01*
X131326812Y-135658624D01*
X131490784Y-135726544D01*
X131638354Y-135825147D01*
X131763853Y-135950646D01*
X131862456Y-136098216D01*
X131930376Y-136262188D01*
X131960073Y-136411488D01*
X131965000Y-136436258D01*
X131965000Y-136613742D01*
X131960073Y-136638512D01*
X131930376Y-136787812D01*
X131862456Y-136951784D01*
X131763853Y-137099354D01*
X131638354Y-137224853D01*
X131490784Y-137323456D01*
X131326812Y-137391376D01*
X131177512Y-137421073D01*
X131152742Y-137426000D01*
X130975258Y-137426000D01*
X130950488Y-137421073D01*
X130801188Y-137391376D01*
X130637216Y-137323456D01*
X130489646Y-137224853D01*
X130364147Y-137099354D01*
X130265544Y-136951784D01*
X130197624Y-136787812D01*
X130167927Y-136638512D01*
X130163000Y-136613742D01*
X130163000Y-136436258D01*
X130167927Y-136411488D01*
X130197624Y-136262188D01*
X130265544Y-136098216D01*
X130364147Y-135950646D01*
X130489646Y-135825147D01*
X130637216Y-135726544D01*
X130801188Y-135658624D01*
X130950488Y-135628927D01*
X130975258Y-135624000D01*
X131152742Y-135624000D01*
X131177512Y-135628927D01*
G37*
G36*
X129425000Y-137426000D02*
G01*
X127623000Y-137426000D01*
X127623000Y-135624000D01*
X129425000Y-135624000D01*
X129425000Y-137426000D01*
G37*
G36*
X123438228Y-134944703D02*
G01*
X123593100Y-135008853D01*
X123732481Y-135101985D01*
X123851015Y-135220519D01*
X123944147Y-135359900D01*
X124008297Y-135514772D01*
X124041000Y-135679184D01*
X124041000Y-135846816D01*
X124008297Y-136011228D01*
X123944147Y-136166100D01*
X123851015Y-136305481D01*
X123732481Y-136424015D01*
X123593100Y-136517147D01*
X123438228Y-136581297D01*
X123273816Y-136614000D01*
X123106184Y-136614000D01*
X122941772Y-136581297D01*
X122786900Y-136517147D01*
X122647519Y-136424015D01*
X122528985Y-136305481D01*
X122435853Y-136166100D01*
X122371703Y-136011228D01*
X122339000Y-135846816D01*
X122339000Y-135679184D01*
X122371703Y-135514772D01*
X122435853Y-135359900D01*
X122528985Y-135220519D01*
X122647519Y-135101985D01*
X122786900Y-135008853D01*
X122941772Y-134944703D01*
X123106184Y-134912000D01*
X123273816Y-134912000D01*
X123438228Y-134944703D01*
G37*
G36*
X118572000Y-135844000D02*
G01*
X115870000Y-135844000D01*
X115870000Y-133142000D01*
X118572000Y-133142000D01*
X118572000Y-135844000D01*
G37*
G36*
X111615072Y-133193918D02*
G01*
X111860939Y-133295759D01*
X112082212Y-133443610D01*
X112270390Y-133631788D01*
X112418241Y-133853061D01*
X112520082Y-134098928D01*
X112572000Y-134359938D01*
X112572000Y-134626062D01*
X112520082Y-134887072D01*
X112418241Y-135132939D01*
X112270390Y-135354212D01*
X112082212Y-135542390D01*
X111860939Y-135690241D01*
X111860938Y-135690242D01*
X111860937Y-135690242D01*
X111615072Y-135792082D01*
X111354063Y-135844000D01*
X111087937Y-135844000D01*
X110826928Y-135792082D01*
X110581063Y-135690242D01*
X110581062Y-135690242D01*
X110581061Y-135690241D01*
X110359788Y-135542390D01*
X110171610Y-135354212D01*
X110023759Y-135132939D01*
X109921918Y-134887072D01*
X109870000Y-134626062D01*
X109870000Y-134359938D01*
X109921918Y-134098928D01*
X110023759Y-133853061D01*
X110171610Y-133631788D01*
X110359788Y-133443610D01*
X110581061Y-133295759D01*
X110826928Y-133193918D01*
X111087937Y-133142000D01*
X111354063Y-133142000D01*
X111615072Y-133193918D01*
G37*
G36*
X123438228Y-127324703D02*
G01*
X123593100Y-127388853D01*
X123732481Y-127481985D01*
X123851015Y-127600519D01*
X123944147Y-127739900D01*
X124008297Y-127894772D01*
X124041000Y-128059184D01*
X124041000Y-128226816D01*
X124008297Y-128391228D01*
X123944147Y-128546100D01*
X123851015Y-128685481D01*
X123732481Y-128804015D01*
X123593100Y-128897147D01*
X123438228Y-128961297D01*
X123273816Y-128994000D01*
X123106184Y-128994000D01*
X122941772Y-128961297D01*
X122786900Y-128897147D01*
X122647519Y-128804015D01*
X122528985Y-128685481D01*
X122435853Y-128546100D01*
X122371703Y-128391228D01*
X122339000Y-128226816D01*
X122339000Y-128059184D01*
X122371703Y-127894772D01*
X122435853Y-127739900D01*
X122528985Y-127600519D01*
X122647519Y-127481985D01*
X122786900Y-127388853D01*
X122941772Y-127324703D01*
X123106184Y-127292000D01*
X123273816Y-127292000D01*
X123438228Y-127324703D01*
G37*
G36*
X115032549Y-124474116D02*
G01*
X115143734Y-124496232D01*
X115353203Y-124582997D01*
X115541720Y-124708960D01*
X115702040Y-124869280D01*
X115828003Y-125057797D01*
X115914768Y-125267266D01*
X115959000Y-125489636D01*
X115959000Y-125716364D01*
X115914768Y-125938734D01*
X115828003Y-126148203D01*
X115702040Y-126336720D01*
X115541720Y-126497040D01*
X115353203Y-126623003D01*
X115143734Y-126709768D01*
X115032549Y-126731884D01*
X114921365Y-126754000D01*
X114694635Y-126754000D01*
X114583451Y-126731884D01*
X114472266Y-126709768D01*
X114262797Y-126623003D01*
X114074280Y-126497040D01*
X113913960Y-126336720D01*
X113787997Y-126148203D01*
X113701232Y-125938734D01*
X113657000Y-125716364D01*
X113657000Y-125489636D01*
X113701232Y-125267266D01*
X113787997Y-125057797D01*
X113913960Y-124869280D01*
X114074280Y-124708960D01*
X114262797Y-124582997D01*
X114472266Y-124496232D01*
X114583451Y-124474116D01*
X114694635Y-124452000D01*
X114921365Y-124452000D01*
X115032549Y-124474116D01*
G37*
G36*
X105799000Y-126754000D02*
G01*
X103497000Y-126754000D01*
X103497000Y-124452000D01*
X105799000Y-124452000D01*
X105799000Y-126754000D01*
G37*
G36*
X122871000Y-121982000D02*
G01*
X120969000Y-121982000D01*
X120969000Y-120080000D01*
X122871000Y-120080000D01*
X122871000Y-121982000D01*
G37*
G36*
X124737395Y-120116546D02*
G01*
X124910466Y-120188234D01*
X124910467Y-120188235D01*
X125066227Y-120292310D01*
X125198690Y-120424773D01*
X125198691Y-120424775D01*
X125302766Y-120580534D01*
X125374454Y-120753605D01*
X125411000Y-120937333D01*
X125411000Y-121124667D01*
X125374454Y-121308395D01*
X125302766Y-121481466D01*
X125302765Y-121481467D01*
X125198690Y-121637227D01*
X125066227Y-121769690D01*
X125019368Y-121801000D01*
X124910466Y-121873766D01*
X124737395Y-121945454D01*
X124553667Y-121982000D01*
X124366333Y-121982000D01*
X124182605Y-121945454D01*
X124009534Y-121873766D01*
X123900632Y-121801000D01*
X123853773Y-121769690D01*
X123721310Y-121637227D01*
X123617235Y-121481467D01*
X123617234Y-121481466D01*
X123545546Y-121308395D01*
X123509000Y-121124667D01*
X123509000Y-120937333D01*
X123545546Y-120753605D01*
X123617234Y-120580534D01*
X123721309Y-120424775D01*
X123721310Y-120424773D01*
X123853773Y-120292310D01*
X124009533Y-120188235D01*
X124009534Y-120188234D01*
X124182605Y-120116546D01*
X124366333Y-120080000D01*
X124553667Y-120080000D01*
X124737395Y-120116546D01*
G37*
G36*
X105799000Y-121801000D02*
G01*
X103497000Y-121801000D01*
X103497000Y-119499000D01*
X105799000Y-119499000D01*
X105799000Y-121801000D01*
G37*
G36*
X115032549Y-119521116D02*
G01*
X115143734Y-119543232D01*
X115353203Y-119629997D01*
X115541720Y-119755960D01*
X115702040Y-119916280D01*
X115828003Y-120104797D01*
X115914768Y-120314266D01*
X115959000Y-120536636D01*
X115959000Y-120763364D01*
X115914768Y-120985734D01*
X115828003Y-121195203D01*
X115702040Y-121383720D01*
X115541720Y-121544040D01*
X115353203Y-121670003D01*
X115143734Y-121756768D01*
X115078765Y-121769691D01*
X114921365Y-121801000D01*
X114694635Y-121801000D01*
X114537235Y-121769691D01*
X114472266Y-121756768D01*
X114262797Y-121670003D01*
X114074280Y-121544040D01*
X113913960Y-121383720D01*
X113787997Y-121195203D01*
X113701232Y-120985734D01*
X113657000Y-120763364D01*
X113657000Y-120536636D01*
X113701232Y-120314266D01*
X113787997Y-120104797D01*
X113913960Y-119916280D01*
X114074280Y-119755960D01*
X114262797Y-119629997D01*
X114472266Y-119543232D01*
X114583451Y-119521116D01*
X114694635Y-119499000D01*
X114921365Y-119499000D01*
X115032549Y-119521116D01*
G37*
G36*
X105799000Y-117483000D02*
G01*
X103497000Y-117483000D01*
X103497000Y-115181000D01*
X105799000Y-115181000D01*
X105799000Y-117483000D01*
G37*
G36*
X115032549Y-115203116D02*
G01*
X115143734Y-115225232D01*
X115353203Y-115311997D01*
X115541720Y-115437960D01*
X115702040Y-115598280D01*
X115828003Y-115786797D01*
X115914768Y-115996266D01*
X115959000Y-116218636D01*
X115959000Y-116445364D01*
X115914768Y-116667734D01*
X115828003Y-116877203D01*
X115702040Y-117065720D01*
X115541720Y-117226040D01*
X115353203Y-117352003D01*
X115143734Y-117438768D01*
X115032549Y-117460884D01*
X114921365Y-117483000D01*
X114694635Y-117483000D01*
X114583451Y-117460884D01*
X114472266Y-117438768D01*
X114262797Y-117352003D01*
X114074280Y-117226040D01*
X113913960Y-117065720D01*
X113787997Y-116877203D01*
X113701232Y-116667734D01*
X113657000Y-116445364D01*
X113657000Y-116218636D01*
X113701232Y-115996266D01*
X113787997Y-115786797D01*
X113913960Y-115598280D01*
X114074280Y-115437960D01*
X114262797Y-115311997D01*
X114472266Y-115225232D01*
X114583451Y-115203116D01*
X114694635Y-115181000D01*
X114921365Y-115181000D01*
X115032549Y-115203116D01*
G37*
G36*
X123683000Y-113998000D02*
G01*
X121681000Y-113998000D01*
X121681000Y-111996000D01*
X123683000Y-111996000D01*
X123683000Y-113998000D01*
G37*
G36*
X105799000Y-112657000D02*
G01*
X103497000Y-112657000D01*
X103497000Y-110355000D01*
X105799000Y-110355000D01*
X105799000Y-112657000D01*
G37*
G36*
X115032549Y-110377116D02*
G01*
X115143734Y-110399232D01*
X115353203Y-110485997D01*
X115541720Y-110611960D01*
X115702040Y-110772280D01*
X115828003Y-110960797D01*
X115914768Y-111170266D01*
X115959000Y-111392636D01*
X115959000Y-111619364D01*
X115914768Y-111841734D01*
X115828003Y-112051203D01*
X115702040Y-112239720D01*
X115541720Y-112400040D01*
X115353203Y-112526003D01*
X115143734Y-112612768D01*
X115032549Y-112634884D01*
X114921365Y-112657000D01*
X114694635Y-112657000D01*
X114583451Y-112634884D01*
X114472266Y-112612768D01*
X114262797Y-112526003D01*
X114074280Y-112400040D01*
X113913960Y-112239720D01*
X113787997Y-112051203D01*
X113701232Y-111841734D01*
X113657000Y-111619364D01*
X113657000Y-111392636D01*
X113701232Y-111170266D01*
X113787997Y-110960797D01*
X113913960Y-110772280D01*
X114074280Y-110611960D01*
X114262797Y-110485997D01*
X114472266Y-110399232D01*
X114583451Y-110377116D01*
X114694635Y-110355000D01*
X114921365Y-110355000D01*
X115032549Y-110377116D01*
G37*
G36*
X122973981Y-109534468D02*
G01*
X123156151Y-109609926D01*
X123320100Y-109719473D01*
X123459527Y-109858900D01*
X123569074Y-110022849D01*
X123644532Y-110205019D01*
X123683000Y-110398410D01*
X123683000Y-110595590D01*
X123644532Y-110788981D01*
X123569074Y-110971151D01*
X123459527Y-111135100D01*
X123320100Y-111274527D01*
X123156151Y-111384074D01*
X122973981Y-111459532D01*
X122780591Y-111498000D01*
X122583409Y-111498000D01*
X122390019Y-111459532D01*
X122207849Y-111384074D01*
X122043900Y-111274527D01*
X121904473Y-111135100D01*
X121794926Y-110971151D01*
X121719468Y-110788981D01*
X121681000Y-110595590D01*
X121681000Y-110398410D01*
X121719468Y-110205019D01*
X121794926Y-110022849D01*
X121904473Y-109858900D01*
X122043900Y-109719473D01*
X122207849Y-109609926D01*
X122390019Y-109534468D01*
X122583409Y-109496000D01*
X122780591Y-109496000D01*
X122973981Y-109534468D01*
G37*
G36*
X122973981Y-107034468D02*
G01*
X123156151Y-107109926D01*
X123320100Y-107219473D01*
X123459527Y-107358900D01*
X123569074Y-107522849D01*
X123644532Y-107705019D01*
X123683000Y-107898410D01*
X123683000Y-108095590D01*
X123644532Y-108288981D01*
X123569074Y-108471151D01*
X123459527Y-108635100D01*
X123320100Y-108774527D01*
X123156151Y-108884074D01*
X122973981Y-108959532D01*
X122877285Y-108978766D01*
X122780591Y-108998000D01*
X122583409Y-108998000D01*
X122486715Y-108978766D01*
X122390019Y-108959532D01*
X122207849Y-108884074D01*
X122043900Y-108774527D01*
X121904473Y-108635100D01*
X121794926Y-108471151D01*
X121719468Y-108288981D01*
X121681000Y-108095590D01*
X121681000Y-107898410D01*
X121719468Y-107705019D01*
X121794926Y-107522849D01*
X121904473Y-107358900D01*
X122043900Y-107219473D01*
X122207849Y-107109926D01*
X122390019Y-107034468D01*
X122583409Y-106996000D01*
X122780591Y-106996000D01*
X122973981Y-107034468D01*
G37*
G36*
X117469228Y-106623703D02*
G01*
X117624100Y-106687853D01*
X117763481Y-106780985D01*
X117882015Y-106899519D01*
X117975147Y-107038900D01*
X118039297Y-107193772D01*
X118072000Y-107358184D01*
X118072000Y-107525816D01*
X118039297Y-107690228D01*
X117975147Y-107845100D01*
X117882015Y-107984481D01*
X117763481Y-108103015D01*
X117624100Y-108196147D01*
X117469228Y-108260297D01*
X117304816Y-108293000D01*
X117137184Y-108293000D01*
X116972772Y-108260297D01*
X116817900Y-108196147D01*
X116678519Y-108103015D01*
X116559985Y-107984481D01*
X116466853Y-107845100D01*
X116402703Y-107690228D01*
X116370000Y-107525816D01*
X116370000Y-107358184D01*
X116402703Y-107193772D01*
X116466853Y-107038900D01*
X116559985Y-106899519D01*
X116678519Y-106780985D01*
X116817900Y-106687853D01*
X116972772Y-106623703D01*
X117137184Y-106591000D01*
X117304816Y-106591000D01*
X117469228Y-106623703D01*
G37*
G36*
X111321719Y-104881520D02*
G01*
X111510880Y-104938901D01*
X111510883Y-104938902D01*
X111603333Y-104988318D01*
X111685212Y-105032083D01*
X111838015Y-105157485D01*
X111963417Y-105310288D01*
X112056599Y-105484619D01*
X112113980Y-105673780D01*
X112128500Y-105821206D01*
X112128500Y-106014793D01*
X112113980Y-106162219D01*
X112056599Y-106351380D01*
X112056598Y-106351383D01*
X112007182Y-106443833D01*
X111963417Y-106525712D01*
X111838015Y-106678515D01*
X111685212Y-106803917D01*
X111510881Y-106897099D01*
X111321720Y-106954480D01*
X111125000Y-106973855D01*
X110928281Y-106954480D01*
X110739120Y-106897099D01*
X110564788Y-106803917D01*
X110411985Y-106678515D01*
X110286583Y-106525712D01*
X110193401Y-106351381D01*
X110136020Y-106162220D01*
X110121500Y-106014794D01*
X110121500Y-105821207D01*
X110136020Y-105673781D01*
X110193401Y-105484620D01*
X110193402Y-105484617D01*
X110242818Y-105392167D01*
X110286583Y-105310288D01*
X110411985Y-105157485D01*
X110564788Y-105032083D01*
X110739119Y-104938901D01*
X110928280Y-104881520D01*
X111125000Y-104862145D01*
X111321719Y-104881520D01*
G37*
G36*
X108781719Y-104881520D02*
G01*
X108970880Y-104938901D01*
X108970883Y-104938902D01*
X109063333Y-104988318D01*
X109145212Y-105032083D01*
X109298015Y-105157485D01*
X109423417Y-105310288D01*
X109516599Y-105484619D01*
X109573980Y-105673780D01*
X109588500Y-105821206D01*
X109588500Y-106014793D01*
X109573980Y-106162219D01*
X109516599Y-106351380D01*
X109516598Y-106351383D01*
X109467182Y-106443833D01*
X109423417Y-106525712D01*
X109298015Y-106678515D01*
X109145212Y-106803917D01*
X108970881Y-106897099D01*
X108781720Y-106954480D01*
X108585000Y-106973855D01*
X108388281Y-106954480D01*
X108199120Y-106897099D01*
X108024788Y-106803917D01*
X107871985Y-106678515D01*
X107746583Y-106525712D01*
X107653401Y-106351381D01*
X107596020Y-106162220D01*
X107581500Y-106014794D01*
X107581500Y-105821207D01*
X107596020Y-105673781D01*
X107653401Y-105484620D01*
X107653402Y-105484617D01*
X107702818Y-105392167D01*
X107746583Y-105310288D01*
X107871985Y-105157485D01*
X108024788Y-105032083D01*
X108199119Y-104938901D01*
X108388280Y-104881520D01*
X108585000Y-104862145D01*
X108781719Y-104881520D01*
G37*
G36*
X107048500Y-106969000D02*
G01*
X105041500Y-106969000D01*
X105041500Y-104867000D01*
X107048500Y-104867000D01*
X107048500Y-106969000D01*
G37*
G36*
X122871000Y-101154000D02*
G01*
X120969000Y-101154000D01*
X120969000Y-99252000D01*
X122871000Y-99252000D01*
X122871000Y-101154000D01*
G37*
G36*
X124737395Y-99288546D02*
G01*
X124910466Y-99360234D01*
X124910467Y-99360235D01*
X125066227Y-99464310D01*
X125198690Y-99596773D01*
X125198691Y-99596775D01*
X125302766Y-99752534D01*
X125374454Y-99925605D01*
X125411000Y-100109333D01*
X125411000Y-100296667D01*
X125374454Y-100480395D01*
X125302766Y-100653466D01*
X125302765Y-100653467D01*
X125198690Y-100809227D01*
X125066227Y-100941690D01*
X124987818Y-100994081D01*
X124910466Y-101045766D01*
X124737395Y-101117454D01*
X124553667Y-101154000D01*
X124366333Y-101154000D01*
X124182605Y-101117454D01*
X124009534Y-101045766D01*
X123932182Y-100994081D01*
X123853773Y-100941690D01*
X123721310Y-100809227D01*
X123617235Y-100653467D01*
X123617234Y-100653466D01*
X123545546Y-100480395D01*
X123509000Y-100296667D01*
X123509000Y-100109333D01*
X123545546Y-99925605D01*
X123617234Y-99752534D01*
X123721309Y-99596775D01*
X123721310Y-99596773D01*
X123853773Y-99464310D01*
X124009533Y-99360235D01*
X124009534Y-99360234D01*
X124182605Y-99288546D01*
X124366333Y-99252000D01*
X124553667Y-99252000D01*
X124737395Y-99288546D01*
G37*
G36*
X117469228Y-99003703D02*
G01*
X117624100Y-99067853D01*
X117763481Y-99160985D01*
X117882015Y-99279519D01*
X117975147Y-99418900D01*
X118039297Y-99573772D01*
X118072000Y-99738184D01*
X118072000Y-99905816D01*
X118039297Y-100070228D01*
X117975147Y-100225100D01*
X117882015Y-100364481D01*
X117763481Y-100483015D01*
X117624100Y-100576147D01*
X117469228Y-100640297D01*
X117304816Y-100673000D01*
X117137184Y-100673000D01*
X116972772Y-100640297D01*
X116817900Y-100576147D01*
X116678519Y-100483015D01*
X116559985Y-100364481D01*
X116466853Y-100225100D01*
X116402703Y-100070228D01*
X116370000Y-99905816D01*
X116370000Y-99738184D01*
X116402703Y-99573772D01*
X116466853Y-99418900D01*
X116559985Y-99279519D01*
X116678519Y-99160985D01*
X116817900Y-99067853D01*
X116972772Y-99003703D01*
X117137184Y-98971000D01*
X117304816Y-98971000D01*
X117469228Y-99003703D01*
G37*
G36*
X111224564Y-93858389D02*
G01*
X111415833Y-93937615D01*
X111415835Y-93937616D01*
X111422396Y-93942000D01*
X111587973Y-94052635D01*
X111734365Y-94199027D01*
X111849385Y-94371167D01*
X111928611Y-94562436D01*
X111969000Y-94765484D01*
X111969000Y-94972516D01*
X111928611Y-95175564D01*
X111849385Y-95366833D01*
X111849384Y-95366835D01*
X111734365Y-95538973D01*
X111587973Y-95685365D01*
X111415835Y-95800384D01*
X111415834Y-95800385D01*
X111415833Y-95800385D01*
X111224564Y-95879611D01*
X111021516Y-95920000D01*
X110814484Y-95920000D01*
X110611436Y-95879611D01*
X110420167Y-95800385D01*
X110420166Y-95800385D01*
X110420165Y-95800384D01*
X110248027Y-95685365D01*
X110101635Y-95538973D01*
X109986616Y-95366835D01*
X109986615Y-95366833D01*
X109907389Y-95175564D01*
X109867000Y-94972516D01*
X109867000Y-94765484D01*
X109907389Y-94562436D01*
X109986615Y-94371167D01*
X110101635Y-94199027D01*
X110248027Y-94052635D01*
X110413604Y-93942000D01*
X110420165Y-93937616D01*
X110420167Y-93937615D01*
X110611436Y-93858389D01*
X110814484Y-93818000D01*
X111021516Y-93818000D01*
X111224564Y-93858389D01*
G37*
G36*
X106969000Y-95920000D02*
G01*
X104867000Y-95920000D01*
X104867000Y-93818000D01*
X106969000Y-93818000D01*
X106969000Y-95920000D01*
G37*
G36*
X128637512Y-93210927D02*
G01*
X128786812Y-93240624D01*
X128950784Y-93308544D01*
X129098354Y-93407147D01*
X129223853Y-93532646D01*
X129322456Y-93680216D01*
X129390376Y-93844188D01*
X129420073Y-93993488D01*
X129425000Y-94018258D01*
X129425000Y-94195742D01*
X129420073Y-94220512D01*
X129390376Y-94369812D01*
X129322456Y-94533784D01*
X129223853Y-94681354D01*
X129098354Y-94806853D01*
X128950784Y-94905456D01*
X128786812Y-94973376D01*
X128637512Y-95003073D01*
X128612742Y-95008000D01*
X128435258Y-95008000D01*
X128410488Y-95003073D01*
X128261188Y-94973376D01*
X128097216Y-94905456D01*
X127949646Y-94806853D01*
X127824147Y-94681354D01*
X127725544Y-94533784D01*
X127657624Y-94369812D01*
X127627927Y-94220512D01*
X127623000Y-94195742D01*
X127623000Y-94018258D01*
X127627927Y-93993488D01*
X127657624Y-93844188D01*
X127725544Y-93680216D01*
X127824147Y-93532646D01*
X127949646Y-93407147D01*
X128097216Y-93308544D01*
X128261188Y-93240624D01*
X128410488Y-93210927D01*
X128435258Y-93206000D01*
X128612742Y-93206000D01*
X128637512Y-93210927D01*
G37*
G36*
X131177512Y-93210927D02*
G01*
X131326812Y-93240624D01*
X131490784Y-93308544D01*
X131638354Y-93407147D01*
X131763853Y-93532646D01*
X131862456Y-93680216D01*
X131930376Y-93844188D01*
X131960073Y-93993488D01*
X131965000Y-94018258D01*
X131965000Y-94195742D01*
X131960073Y-94220512D01*
X131930376Y-94369812D01*
X131862456Y-94533784D01*
X131763853Y-94681354D01*
X131638354Y-94806853D01*
X131490784Y-94905456D01*
X131326812Y-94973376D01*
X131177512Y-95003073D01*
X131152742Y-95008000D01*
X130975258Y-95008000D01*
X130950488Y-95003073D01*
X130801188Y-94973376D01*
X130637216Y-94905456D01*
X130489646Y-94806853D01*
X130364147Y-94681354D01*
X130265544Y-94533784D01*
X130197624Y-94369812D01*
X130167927Y-94220512D01*
X130163000Y-94195742D01*
X130163000Y-94018258D01*
X130167927Y-93993488D01*
X130197624Y-93844188D01*
X130265544Y-93680216D01*
X130364147Y-93532646D01*
X130489646Y-93407147D01*
X130637216Y-93308544D01*
X130801188Y-93240624D01*
X130950488Y-93210927D01*
X130975258Y-93206000D01*
X131152742Y-93206000D01*
X131177512Y-93210927D01*
G37*
G36*
X117056000Y-93942000D02*
G01*
X115354000Y-93942000D01*
X115354000Y-92240000D01*
X117056000Y-92240000D01*
X117056000Y-93942000D01*
G37*
G36*
X118953228Y-92272703D02*
G01*
X119108100Y-92336853D01*
X119247481Y-92429985D01*
X119366015Y-92548519D01*
X119459147Y-92687900D01*
X119523297Y-92842772D01*
X119556000Y-93007184D01*
X119556000Y-93174816D01*
X119523297Y-93339228D01*
X119459147Y-93494100D01*
X119366015Y-93633481D01*
X119247481Y-93752015D01*
X119108100Y-93845147D01*
X118953228Y-93909297D01*
X118788816Y-93942000D01*
X118621184Y-93942000D01*
X118456772Y-93909297D01*
X118301900Y-93845147D01*
X118162519Y-93752015D01*
X118043985Y-93633481D01*
X117950853Y-93494100D01*
X117886703Y-93339228D01*
X117854000Y-93174816D01*
X117854000Y-93007184D01*
X117886703Y-92842772D01*
X117950853Y-92687900D01*
X118043985Y-92548519D01*
X118162519Y-92429985D01*
X118301900Y-92336853D01*
X118456772Y-92272703D01*
X118621184Y-92240000D01*
X118788816Y-92240000D01*
X118953228Y-92272703D01*
G37*
G36*
X129425000Y-92468000D02*
G01*
X127623000Y-92468000D01*
X127623000Y-90666000D01*
X129425000Y-90666000D01*
X129425000Y-92468000D01*
G37*
G36*
X131177512Y-90670927D02*
G01*
X131326812Y-90700624D01*
X131490784Y-90768544D01*
X131638354Y-90867147D01*
X131763853Y-90992646D01*
X131862456Y-91140216D01*
X131930376Y-91304188D01*
X131965000Y-91478259D01*
X131965000Y-91655741D01*
X131930376Y-91829812D01*
X131862456Y-91993784D01*
X131763853Y-92141354D01*
X131638354Y-92266853D01*
X131490784Y-92365456D01*
X131326812Y-92433376D01*
X131177512Y-92463073D01*
X131152742Y-92468000D01*
X130975258Y-92468000D01*
X130950488Y-92463073D01*
X130801188Y-92433376D01*
X130637216Y-92365456D01*
X130489646Y-92266853D01*
X130364147Y-92141354D01*
X130265544Y-91993784D01*
X130197624Y-91829812D01*
X130163000Y-91655741D01*
X130163000Y-91478259D01*
X130197624Y-91304188D01*
X130265544Y-91140216D01*
X130364147Y-90992646D01*
X130489646Y-90867147D01*
X130637216Y-90768544D01*
X130801188Y-90700624D01*
X130950488Y-90670927D01*
X130975258Y-90666000D01*
X131152742Y-90666000D01*
X131177512Y-90670927D01*
G37*
M02*
