M48
; DRILL file {KiCad (5.1.5-0-10_14)} date Wednesday, 08 January 2020 at 22:20:57
; FORMAT={-:-/ absolute / inch / decimal}
; #@! TF.CreationDate,2020-01-08T22:20:57-03:00
; #@! TF.GenerationSoftware,Kicad,Pcbnew,(5.1.5-0-10_14)
; #@! TF.FileFunction,Plated,1,2,PTH
FMAT,2
INCH
T1C0.0315
T2C0.0354
T3C0.0394
T4C0.0433
T5C0.0630
%
G90
G05
T1
X4.575Y-3.665
X4.6734Y-3.665
X4.85Y-5.045
X4.85Y-5.345
X4.615Y-3.93
X4.615Y-4.23
T2
X4.8Y-4.765
X4.9Y-4.765
X4.8Y-3.945
X4.9Y-3.945
X4.83Y-4.2519
X4.83Y-4.3503
X4.83Y-4.4487
T3
X5.06Y-3.605
X5.06Y-3.705
X5.16Y-3.605
X5.16Y-3.705
X4.17Y-3.735
X4.3669Y-3.735
X5.06Y-5.375
X5.06Y-5.475
X5.16Y-5.375
X5.16Y-5.475
T4
X4.175Y-4.17
X4.275Y-4.17
X4.375Y-4.17
X4.12Y-4.58
X4.52Y-4.58
X4.12Y-4.75
X4.52Y-4.75
X4.12Y-4.39
X4.52Y-4.39
X4.12Y-4.945
X4.52Y-4.945
T5
X4.3788Y-5.295
X4.4969Y-5.48
X4.615Y-5.295
T0
M30
