G04 #@! TF.GenerationSoftware,KiCad,Pcbnew,(5.1.5-0-10_14)*
G04 #@! TF.CreationDate,2020-01-08T22:19:55-03:00*
G04 #@! TF.ProjectId,breaboard_power_supply,62726561-626f-4617-9264-5f706f776572,1*
G04 #@! TF.SameCoordinates,Original*
G04 #@! TF.FileFunction,Legend,Top*
G04 #@! TF.FilePolarity,Positive*
%FSLAX46Y46*%
G04 Gerber Fmt 4.6, Leading zero omitted, Abs format (unit mm)*
G04 Created by KiCad (PCBNEW (5.1.5-0-10_14)) date 2020-01-08 22:19:55*
%MOMM*%
%LPD*%
G04 APERTURE LIST*
%ADD10C,0.250000*%
%ADD11C,0.120000*%
%ADD12C,0.100000*%
%ADD13C,0.150000*%
G04 APERTURE END LIST*
D10*
X121880380Y-134968904D02*
X121880380Y-135445095D01*
X122356571Y-135492714D01*
X122308952Y-135445095D01*
X122261333Y-135349857D01*
X122261333Y-135111761D01*
X122308952Y-135016523D01*
X122356571Y-134968904D01*
X122451809Y-134921285D01*
X122689904Y-134921285D01*
X122785142Y-134968904D01*
X122832761Y-135016523D01*
X122880380Y-135111761D01*
X122880380Y-135349857D01*
X122832761Y-135445095D01*
X122785142Y-135492714D01*
X121880380Y-134064142D02*
X121880380Y-134254619D01*
X121928000Y-134349857D01*
X121975619Y-134397476D01*
X122118476Y-134492714D01*
X122308952Y-134540333D01*
X122689904Y-134540333D01*
X122785142Y-134492714D01*
X122832761Y-134445095D01*
X122880380Y-134349857D01*
X122880380Y-134159380D01*
X122832761Y-134064142D01*
X122785142Y-134016523D01*
X122689904Y-133968904D01*
X122451809Y-133968904D01*
X122356571Y-134016523D01*
X122308952Y-134064142D01*
X122261333Y-134159380D01*
X122261333Y-134349857D01*
X122308952Y-134445095D01*
X122356571Y-134492714D01*
X122451809Y-134540333D01*
X121880380Y-133349857D02*
X121880380Y-133254619D01*
X121928000Y-133159380D01*
X121975619Y-133111761D01*
X122070857Y-133064142D01*
X122261333Y-133016523D01*
X122499428Y-133016523D01*
X122689904Y-133064142D01*
X122785142Y-133111761D01*
X122832761Y-133159380D01*
X122880380Y-133254619D01*
X122880380Y-133349857D01*
X122832761Y-133445095D01*
X122785142Y-133492714D01*
X122689904Y-133540333D01*
X122499428Y-133587952D01*
X122261333Y-133587952D01*
X122070857Y-133540333D01*
X121975619Y-133492714D01*
X121928000Y-133445095D01*
X121880380Y-133349857D01*
X121880380Y-132397476D02*
X121880380Y-132302238D01*
X121928000Y-132207000D01*
X121975619Y-132159380D01*
X122070857Y-132111761D01*
X122261333Y-132064142D01*
X122499428Y-132064142D01*
X122689904Y-132111761D01*
X122785142Y-132159380D01*
X122832761Y-132207000D01*
X122880380Y-132302238D01*
X122880380Y-132397476D01*
X122832761Y-132492714D01*
X122785142Y-132540333D01*
X122689904Y-132587952D01*
X122499428Y-132635571D01*
X122261333Y-132635571D01*
X122070857Y-132587952D01*
X121975619Y-132540333D01*
X121928000Y-132492714D01*
X121880380Y-132397476D01*
X122880380Y-131492714D02*
X122832761Y-131587952D01*
X122785142Y-131635571D01*
X122689904Y-131683190D01*
X122404190Y-131683190D01*
X122308952Y-131635571D01*
X122261333Y-131587952D01*
X122213714Y-131492714D01*
X122213714Y-131349857D01*
X122261333Y-131254619D01*
X122308952Y-131207000D01*
X122404190Y-131159380D01*
X122689904Y-131159380D01*
X122785142Y-131207000D01*
X122832761Y-131254619D01*
X122880380Y-131349857D01*
X122880380Y-131492714D01*
X122880380Y-130730809D02*
X121880380Y-130730809D01*
X122880380Y-130302238D02*
X122356571Y-130302238D01*
X122261333Y-130349857D01*
X122213714Y-130445095D01*
X122213714Y-130587952D01*
X122261333Y-130683190D01*
X122308952Y-130730809D01*
X122880380Y-129826047D02*
X122213714Y-129826047D01*
X122308952Y-129826047D02*
X122261333Y-129778428D01*
X122213714Y-129683190D01*
X122213714Y-129540333D01*
X122261333Y-129445095D01*
X122356571Y-129397476D01*
X122880380Y-129397476D01*
X122356571Y-129397476D02*
X122261333Y-129349857D01*
X122213714Y-129254619D01*
X122213714Y-129111761D01*
X122261333Y-129016523D01*
X122356571Y-128968904D01*
X122880380Y-128968904D01*
X115911380Y-106520904D02*
X115911380Y-106997095D01*
X116387571Y-107044714D01*
X116339952Y-106997095D01*
X116292333Y-106901857D01*
X116292333Y-106663761D01*
X116339952Y-106568523D01*
X116387571Y-106520904D01*
X116482809Y-106473285D01*
X116720904Y-106473285D01*
X116816142Y-106520904D01*
X116863761Y-106568523D01*
X116911380Y-106663761D01*
X116911380Y-106901857D01*
X116863761Y-106997095D01*
X116816142Y-107044714D01*
X115911380Y-105616142D02*
X115911380Y-105806619D01*
X115959000Y-105901857D01*
X116006619Y-105949476D01*
X116149476Y-106044714D01*
X116339952Y-106092333D01*
X116720904Y-106092333D01*
X116816142Y-106044714D01*
X116863761Y-105997095D01*
X116911380Y-105901857D01*
X116911380Y-105711380D01*
X116863761Y-105616142D01*
X116816142Y-105568523D01*
X116720904Y-105520904D01*
X116482809Y-105520904D01*
X116387571Y-105568523D01*
X116339952Y-105616142D01*
X116292333Y-105711380D01*
X116292333Y-105901857D01*
X116339952Y-105997095D01*
X116387571Y-106044714D01*
X116482809Y-106092333D01*
X115911380Y-104901857D02*
X115911380Y-104806619D01*
X115959000Y-104711380D01*
X116006619Y-104663761D01*
X116101857Y-104616142D01*
X116292333Y-104568523D01*
X116530428Y-104568523D01*
X116720904Y-104616142D01*
X116816142Y-104663761D01*
X116863761Y-104711380D01*
X116911380Y-104806619D01*
X116911380Y-104901857D01*
X116863761Y-104997095D01*
X116816142Y-105044714D01*
X116720904Y-105092333D01*
X116530428Y-105139952D01*
X116292333Y-105139952D01*
X116101857Y-105092333D01*
X116006619Y-105044714D01*
X115959000Y-104997095D01*
X115911380Y-104901857D01*
X115911380Y-103949476D02*
X115911380Y-103854238D01*
X115959000Y-103759000D01*
X116006619Y-103711380D01*
X116101857Y-103663761D01*
X116292333Y-103616142D01*
X116530428Y-103616142D01*
X116720904Y-103663761D01*
X116816142Y-103711380D01*
X116863761Y-103759000D01*
X116911380Y-103854238D01*
X116911380Y-103949476D01*
X116863761Y-104044714D01*
X116816142Y-104092333D01*
X116720904Y-104139952D01*
X116530428Y-104187571D01*
X116292333Y-104187571D01*
X116101857Y-104139952D01*
X116006619Y-104092333D01*
X115959000Y-104044714D01*
X115911380Y-103949476D01*
X116911380Y-103044714D02*
X116863761Y-103139952D01*
X116816142Y-103187571D01*
X116720904Y-103235190D01*
X116435190Y-103235190D01*
X116339952Y-103187571D01*
X116292333Y-103139952D01*
X116244714Y-103044714D01*
X116244714Y-102901857D01*
X116292333Y-102806619D01*
X116339952Y-102759000D01*
X116435190Y-102711380D01*
X116720904Y-102711380D01*
X116816142Y-102759000D01*
X116863761Y-102806619D01*
X116911380Y-102901857D01*
X116911380Y-103044714D01*
X116911380Y-102282809D02*
X115911380Y-102282809D01*
X116911380Y-101854238D02*
X116387571Y-101854238D01*
X116292333Y-101901857D01*
X116244714Y-101997095D01*
X116244714Y-102139952D01*
X116292333Y-102235190D01*
X116339952Y-102282809D01*
X116911380Y-101378047D02*
X116244714Y-101378047D01*
X116339952Y-101378047D02*
X116292333Y-101330428D01*
X116244714Y-101235190D01*
X116244714Y-101092333D01*
X116292333Y-100997095D01*
X116387571Y-100949476D01*
X116911380Y-100949476D01*
X116387571Y-100949476D02*
X116292333Y-100901857D01*
X116244714Y-100806619D01*
X116244714Y-100663761D01*
X116292333Y-100568523D01*
X116387571Y-100520904D01*
X116911380Y-100520904D01*
X115038333Y-97194714D02*
X115038333Y-97861380D01*
X114800238Y-96813761D02*
X114562142Y-97528047D01*
X115181190Y-97528047D01*
X115466904Y-96861380D02*
X116133571Y-96861380D01*
X115705000Y-97861380D01*
X116943095Y-97194714D02*
X116943095Y-97861380D01*
X116514523Y-97194714D02*
X116514523Y-97718523D01*
X116562142Y-97813761D01*
X116657380Y-97861380D01*
X116800238Y-97861380D01*
X116895476Y-97813761D01*
X116943095Y-97766142D01*
X117752619Y-97337571D02*
X117419285Y-97337571D01*
X117419285Y-97861380D02*
X117419285Y-96861380D01*
X117895476Y-96861380D01*
X103640142Y-100369714D02*
X103640142Y-101036380D01*
X103402047Y-99988761D02*
X103163952Y-100703047D01*
X103783000Y-100703047D01*
X104068714Y-100036380D02*
X104735380Y-100036380D01*
X104306809Y-101036380D01*
X105306809Y-100036380D02*
X105402047Y-100036380D01*
X105497285Y-100084000D01*
X105544904Y-100131619D01*
X105592523Y-100226857D01*
X105640142Y-100417333D01*
X105640142Y-100655428D01*
X105592523Y-100845904D01*
X105544904Y-100941142D01*
X105497285Y-100988761D01*
X105402047Y-101036380D01*
X105306809Y-101036380D01*
X105211571Y-100988761D01*
X105163952Y-100941142D01*
X105116333Y-100845904D01*
X105068714Y-100655428D01*
X105068714Y-100417333D01*
X105116333Y-100226857D01*
X105163952Y-100131619D01*
X105211571Y-100084000D01*
X105306809Y-100036380D01*
X106497285Y-100369714D02*
X106497285Y-101036380D01*
X106068714Y-100369714D02*
X106068714Y-100893523D01*
X106116333Y-100988761D01*
X106211571Y-101036380D01*
X106354428Y-101036380D01*
X106449666Y-100988761D01*
X106497285Y-100941142D01*
X107306809Y-100512571D02*
X106973476Y-100512571D01*
X106973476Y-101036380D02*
X106973476Y-100036380D01*
X107449666Y-100036380D01*
X124714095Y-138692000D02*
X124618857Y-138644380D01*
X124476000Y-138644380D01*
X124333142Y-138692000D01*
X124237904Y-138787238D01*
X124190285Y-138882476D01*
X124142666Y-139072952D01*
X124142666Y-139215809D01*
X124190285Y-139406285D01*
X124237904Y-139501523D01*
X124333142Y-139596761D01*
X124476000Y-139644380D01*
X124571238Y-139644380D01*
X124714095Y-139596761D01*
X124761714Y-139549142D01*
X124761714Y-139215809D01*
X124571238Y-139215809D01*
X125190285Y-139644380D02*
X125190285Y-138644380D01*
X125761714Y-139644380D01*
X125761714Y-138644380D01*
X126237904Y-139644380D02*
X126237904Y-138644380D01*
X126476000Y-138644380D01*
X126618857Y-138692000D01*
X126714095Y-138787238D01*
X126761714Y-138882476D01*
X126809333Y-139072952D01*
X126809333Y-139215809D01*
X126761714Y-139406285D01*
X126714095Y-139501523D01*
X126618857Y-139596761D01*
X126476000Y-139644380D01*
X126237904Y-139644380D01*
X124714095Y-93734000D02*
X124618857Y-93686380D01*
X124476000Y-93686380D01*
X124333142Y-93734000D01*
X124237904Y-93829238D01*
X124190285Y-93924476D01*
X124142666Y-94114952D01*
X124142666Y-94257809D01*
X124190285Y-94448285D01*
X124237904Y-94543523D01*
X124333142Y-94638761D01*
X124476000Y-94686380D01*
X124571238Y-94686380D01*
X124714095Y-94638761D01*
X124761714Y-94591142D01*
X124761714Y-94257809D01*
X124571238Y-94257809D01*
X125190285Y-94686380D02*
X125190285Y-93686380D01*
X125761714Y-94686380D01*
X125761714Y-93686380D01*
X126237904Y-94686380D02*
X126237904Y-93686380D01*
X126476000Y-93686380D01*
X126618857Y-93734000D01*
X126714095Y-93829238D01*
X126761714Y-93924476D01*
X126809333Y-94114952D01*
X126809333Y-94257809D01*
X126761714Y-94448285D01*
X126714095Y-94543523D01*
X126618857Y-94638761D01*
X126476000Y-94686380D01*
X126237904Y-94686380D01*
X125793523Y-90130380D02*
X125317333Y-90130380D01*
X125269714Y-90606571D01*
X125317333Y-90558952D01*
X125412571Y-90511333D01*
X125650666Y-90511333D01*
X125745904Y-90558952D01*
X125793523Y-90606571D01*
X125841142Y-90701809D01*
X125841142Y-90939904D01*
X125793523Y-91035142D01*
X125745904Y-91082761D01*
X125650666Y-91130380D01*
X125412571Y-91130380D01*
X125317333Y-91082761D01*
X125269714Y-91035142D01*
X126126857Y-90130380D02*
X126460190Y-91130380D01*
X126793523Y-90130380D01*
X125920523Y-136104380D02*
X125444333Y-136104380D01*
X125396714Y-136580571D01*
X125444333Y-136532952D01*
X125539571Y-136485333D01*
X125777666Y-136485333D01*
X125872904Y-136532952D01*
X125920523Y-136580571D01*
X125968142Y-136675809D01*
X125968142Y-136913904D01*
X125920523Y-137009142D01*
X125872904Y-137056761D01*
X125777666Y-137104380D01*
X125539571Y-137104380D01*
X125444333Y-137056761D01*
X125396714Y-137009142D01*
X126253857Y-136104380D02*
X126587190Y-137104380D01*
X126920523Y-136104380D01*
D11*
X113538000Y-94869000D02*
G75*
G03X113538000Y-94869000I-5120000J0D01*
G01*
X108418000Y-89789000D02*
X108418000Y-99949000D01*
X108458000Y-89789000D02*
X108458000Y-99949000D01*
X108498000Y-89789000D02*
X108498000Y-99949000D01*
X108538000Y-89790000D02*
X108538000Y-99948000D01*
X108578000Y-89791000D02*
X108578000Y-99947000D01*
X108618000Y-89792000D02*
X108618000Y-99946000D01*
X108658000Y-89794000D02*
X108658000Y-99944000D01*
X108698000Y-89796000D02*
X108698000Y-99942000D01*
X108738000Y-89799000D02*
X108738000Y-99939000D01*
X108778000Y-89801000D02*
X108778000Y-99937000D01*
X108818000Y-89804000D02*
X108818000Y-99934000D01*
X108858000Y-89807000D02*
X108858000Y-99931000D01*
X108898000Y-89811000D02*
X108898000Y-99927000D01*
X108938000Y-89815000D02*
X108938000Y-99923000D01*
X108978000Y-89819000D02*
X108978000Y-99919000D01*
X109018000Y-89824000D02*
X109018000Y-99914000D01*
X109058000Y-89829000D02*
X109058000Y-99909000D01*
X109098000Y-89834000D02*
X109098000Y-99904000D01*
X109139000Y-89839000D02*
X109139000Y-99899000D01*
X109179000Y-89845000D02*
X109179000Y-99893000D01*
X109219000Y-89851000D02*
X109219000Y-99887000D01*
X109259000Y-89858000D02*
X109259000Y-99880000D01*
X109299000Y-89865000D02*
X109299000Y-99873000D01*
X109339000Y-89872000D02*
X109339000Y-99866000D01*
X109379000Y-89879000D02*
X109379000Y-99859000D01*
X109419000Y-89887000D02*
X109419000Y-99851000D01*
X109459000Y-89895000D02*
X109459000Y-99843000D01*
X109499000Y-89904000D02*
X109499000Y-99834000D01*
X109539000Y-89913000D02*
X109539000Y-99825000D01*
X109579000Y-89922000D02*
X109579000Y-99816000D01*
X109619000Y-89931000D02*
X109619000Y-99807000D01*
X109659000Y-89941000D02*
X109659000Y-99797000D01*
X109699000Y-89951000D02*
X109699000Y-93628000D01*
X109699000Y-96110000D02*
X109699000Y-99787000D01*
X109739000Y-89962000D02*
X109739000Y-93628000D01*
X109739000Y-96110000D02*
X109739000Y-99776000D01*
X109779000Y-89972000D02*
X109779000Y-93628000D01*
X109779000Y-96110000D02*
X109779000Y-99766000D01*
X109819000Y-89984000D02*
X109819000Y-93628000D01*
X109819000Y-96110000D02*
X109819000Y-99754000D01*
X109859000Y-89995000D02*
X109859000Y-93628000D01*
X109859000Y-96110000D02*
X109859000Y-99743000D01*
X109899000Y-90007000D02*
X109899000Y-93628000D01*
X109899000Y-96110000D02*
X109899000Y-99731000D01*
X109939000Y-90019000D02*
X109939000Y-93628000D01*
X109939000Y-96110000D02*
X109939000Y-99719000D01*
X109979000Y-90032000D02*
X109979000Y-93628000D01*
X109979000Y-96110000D02*
X109979000Y-99706000D01*
X110019000Y-90045000D02*
X110019000Y-93628000D01*
X110019000Y-96110000D02*
X110019000Y-99693000D01*
X110059000Y-90058000D02*
X110059000Y-93628000D01*
X110059000Y-96110000D02*
X110059000Y-99680000D01*
X110099000Y-90072000D02*
X110099000Y-93628000D01*
X110099000Y-96110000D02*
X110099000Y-99666000D01*
X110139000Y-90086000D02*
X110139000Y-93628000D01*
X110139000Y-96110000D02*
X110139000Y-99652000D01*
X110179000Y-90101000D02*
X110179000Y-93628000D01*
X110179000Y-96110000D02*
X110179000Y-99637000D01*
X110219000Y-90115000D02*
X110219000Y-93628000D01*
X110219000Y-96110000D02*
X110219000Y-99623000D01*
X110259000Y-90131000D02*
X110259000Y-93628000D01*
X110259000Y-96110000D02*
X110259000Y-99607000D01*
X110299000Y-90146000D02*
X110299000Y-93628000D01*
X110299000Y-96110000D02*
X110299000Y-99592000D01*
X110339000Y-90162000D02*
X110339000Y-93628000D01*
X110339000Y-96110000D02*
X110339000Y-99576000D01*
X110379000Y-90179000D02*
X110379000Y-93628000D01*
X110379000Y-96110000D02*
X110379000Y-99559000D01*
X110419000Y-90195000D02*
X110419000Y-93628000D01*
X110419000Y-96110000D02*
X110419000Y-99543000D01*
X110459000Y-90212000D02*
X110459000Y-93628000D01*
X110459000Y-96110000D02*
X110459000Y-99526000D01*
X110499000Y-90230000D02*
X110499000Y-93628000D01*
X110499000Y-96110000D02*
X110499000Y-99508000D01*
X110539000Y-90248000D02*
X110539000Y-93628000D01*
X110539000Y-96110000D02*
X110539000Y-99490000D01*
X110579000Y-90266000D02*
X110579000Y-93628000D01*
X110579000Y-96110000D02*
X110579000Y-99472000D01*
X110619000Y-90285000D02*
X110619000Y-93628000D01*
X110619000Y-96110000D02*
X110619000Y-99453000D01*
X110659000Y-90305000D02*
X110659000Y-93628000D01*
X110659000Y-96110000D02*
X110659000Y-99433000D01*
X110699000Y-90324000D02*
X110699000Y-93628000D01*
X110699000Y-96110000D02*
X110699000Y-99414000D01*
X110739000Y-90344000D02*
X110739000Y-93628000D01*
X110739000Y-96110000D02*
X110739000Y-99394000D01*
X110779000Y-90365000D02*
X110779000Y-93628000D01*
X110779000Y-96110000D02*
X110779000Y-99373000D01*
X110819000Y-90386000D02*
X110819000Y-93628000D01*
X110819000Y-96110000D02*
X110819000Y-99352000D01*
X110859000Y-90407000D02*
X110859000Y-93628000D01*
X110859000Y-96110000D02*
X110859000Y-99331000D01*
X110899000Y-90429000D02*
X110899000Y-93628000D01*
X110899000Y-96110000D02*
X110899000Y-99309000D01*
X110939000Y-90452000D02*
X110939000Y-93628000D01*
X110939000Y-96110000D02*
X110939000Y-99286000D01*
X110979000Y-90474000D02*
X110979000Y-93628000D01*
X110979000Y-96110000D02*
X110979000Y-99264000D01*
X111019000Y-90498000D02*
X111019000Y-93628000D01*
X111019000Y-96110000D02*
X111019000Y-99240000D01*
X111059000Y-90522000D02*
X111059000Y-93628000D01*
X111059000Y-96110000D02*
X111059000Y-99216000D01*
X111099000Y-90546000D02*
X111099000Y-93628000D01*
X111099000Y-96110000D02*
X111099000Y-99192000D01*
X111139000Y-90571000D02*
X111139000Y-93628000D01*
X111139000Y-96110000D02*
X111139000Y-99167000D01*
X111179000Y-90596000D02*
X111179000Y-93628000D01*
X111179000Y-96110000D02*
X111179000Y-99142000D01*
X111219000Y-90622000D02*
X111219000Y-93628000D01*
X111219000Y-96110000D02*
X111219000Y-99116000D01*
X111259000Y-90648000D02*
X111259000Y-93628000D01*
X111259000Y-96110000D02*
X111259000Y-99090000D01*
X111299000Y-90675000D02*
X111299000Y-93628000D01*
X111299000Y-96110000D02*
X111299000Y-99063000D01*
X111339000Y-90703000D02*
X111339000Y-93628000D01*
X111339000Y-96110000D02*
X111339000Y-99035000D01*
X111379000Y-90731000D02*
X111379000Y-93628000D01*
X111379000Y-96110000D02*
X111379000Y-99007000D01*
X111419000Y-90759000D02*
X111419000Y-93628000D01*
X111419000Y-96110000D02*
X111419000Y-98979000D01*
X111459000Y-90789000D02*
X111459000Y-93628000D01*
X111459000Y-96110000D02*
X111459000Y-98949000D01*
X111499000Y-90819000D02*
X111499000Y-93628000D01*
X111499000Y-96110000D02*
X111499000Y-98919000D01*
X111539000Y-90849000D02*
X111539000Y-93628000D01*
X111539000Y-96110000D02*
X111539000Y-98889000D01*
X111579000Y-90880000D02*
X111579000Y-93628000D01*
X111579000Y-96110000D02*
X111579000Y-98858000D01*
X111619000Y-90912000D02*
X111619000Y-93628000D01*
X111619000Y-96110000D02*
X111619000Y-98826000D01*
X111659000Y-90944000D02*
X111659000Y-93628000D01*
X111659000Y-96110000D02*
X111659000Y-98794000D01*
X111699000Y-90977000D02*
X111699000Y-93628000D01*
X111699000Y-96110000D02*
X111699000Y-98761000D01*
X111739000Y-91011000D02*
X111739000Y-93628000D01*
X111739000Y-96110000D02*
X111739000Y-98727000D01*
X111779000Y-91045000D02*
X111779000Y-93628000D01*
X111779000Y-96110000D02*
X111779000Y-98693000D01*
X111819000Y-91080000D02*
X111819000Y-93628000D01*
X111819000Y-96110000D02*
X111819000Y-98658000D01*
X111859000Y-91116000D02*
X111859000Y-93628000D01*
X111859000Y-96110000D02*
X111859000Y-98622000D01*
X111899000Y-91153000D02*
X111899000Y-93628000D01*
X111899000Y-96110000D02*
X111899000Y-98585000D01*
X111939000Y-91190000D02*
X111939000Y-93628000D01*
X111939000Y-96110000D02*
X111939000Y-98548000D01*
X111979000Y-91229000D02*
X111979000Y-93628000D01*
X111979000Y-96110000D02*
X111979000Y-98509000D01*
X112019000Y-91268000D02*
X112019000Y-93628000D01*
X112019000Y-96110000D02*
X112019000Y-98470000D01*
X112059000Y-91308000D02*
X112059000Y-93628000D01*
X112059000Y-96110000D02*
X112059000Y-98430000D01*
X112099000Y-91349000D02*
X112099000Y-93628000D01*
X112099000Y-96110000D02*
X112099000Y-98389000D01*
X112139000Y-91391000D02*
X112139000Y-93628000D01*
X112139000Y-96110000D02*
X112139000Y-98347000D01*
X112179000Y-91433000D02*
X112179000Y-98305000D01*
X112219000Y-91477000D02*
X112219000Y-98261000D01*
X112259000Y-91522000D02*
X112259000Y-98216000D01*
X112299000Y-91568000D02*
X112299000Y-98170000D01*
X112339000Y-91615000D02*
X112339000Y-98123000D01*
X112379000Y-91663000D02*
X112379000Y-98075000D01*
X112419000Y-91713000D02*
X112419000Y-98025000D01*
X112459000Y-91763000D02*
X112459000Y-97975000D01*
X112499000Y-91815000D02*
X112499000Y-97923000D01*
X112539000Y-91869000D02*
X112539000Y-97869000D01*
X112579000Y-91924000D02*
X112579000Y-97814000D01*
X112619000Y-91980000D02*
X112619000Y-97758000D01*
X112659000Y-92039000D02*
X112659000Y-97699000D01*
X112699000Y-92099000D02*
X112699000Y-97639000D01*
X112739000Y-92160000D02*
X112739000Y-97578000D01*
X112779000Y-92224000D02*
X112779000Y-97514000D01*
X112819000Y-92290000D02*
X112819000Y-97448000D01*
X112859000Y-92359000D02*
X112859000Y-97379000D01*
X112899000Y-92430000D02*
X112899000Y-97308000D01*
X112939000Y-92504000D02*
X112939000Y-97234000D01*
X112979000Y-92580000D02*
X112979000Y-97158000D01*
X113019000Y-92660000D02*
X113019000Y-97078000D01*
X113059000Y-92744000D02*
X113059000Y-96994000D01*
X113099000Y-92832000D02*
X113099000Y-96906000D01*
X113139000Y-92925000D02*
X113139000Y-96813000D01*
X113179000Y-93023000D02*
X113179000Y-96715000D01*
X113219000Y-93127000D02*
X113219000Y-96611000D01*
X113259000Y-93239000D02*
X113259000Y-96499000D01*
X113299000Y-93359000D02*
X113299000Y-96379000D01*
X113339000Y-93491000D02*
X113339000Y-96247000D01*
X113379000Y-93639000D02*
X113379000Y-96099000D01*
X113419000Y-93807000D02*
X113419000Y-95931000D01*
X113459000Y-94007000D02*
X113459000Y-95731000D01*
X113499000Y-94270000D02*
X113499000Y-95468000D01*
X102938354Y-91994000D02*
X103938354Y-91994000D01*
X103438354Y-91494000D02*
X103438354Y-92494000D01*
X120725000Y-93091000D02*
G75*
G03X120725000Y-93091000I-3270000J0D01*
G01*
X117455000Y-89861000D02*
X117455000Y-96321000D01*
X117495000Y-89861000D02*
X117495000Y-96321000D01*
X117535000Y-89861000D02*
X117535000Y-96321000D01*
X117575000Y-89863000D02*
X117575000Y-96319000D01*
X117615000Y-89864000D02*
X117615000Y-96318000D01*
X117655000Y-89867000D02*
X117655000Y-96315000D01*
X117695000Y-89869000D02*
X117695000Y-92051000D01*
X117695000Y-94131000D02*
X117695000Y-96313000D01*
X117735000Y-89873000D02*
X117735000Y-92051000D01*
X117735000Y-94131000D02*
X117735000Y-96309000D01*
X117775000Y-89876000D02*
X117775000Y-92051000D01*
X117775000Y-94131000D02*
X117775000Y-96306000D01*
X117815000Y-89880000D02*
X117815000Y-92051000D01*
X117815000Y-94131000D02*
X117815000Y-96302000D01*
X117855000Y-89885000D02*
X117855000Y-92051000D01*
X117855000Y-94131000D02*
X117855000Y-96297000D01*
X117895000Y-89890000D02*
X117895000Y-92051000D01*
X117895000Y-94131000D02*
X117895000Y-96292000D01*
X117935000Y-89896000D02*
X117935000Y-92051000D01*
X117935000Y-94131000D02*
X117935000Y-96286000D01*
X117975000Y-89902000D02*
X117975000Y-92051000D01*
X117975000Y-94131000D02*
X117975000Y-96280000D01*
X118015000Y-89909000D02*
X118015000Y-92051000D01*
X118015000Y-94131000D02*
X118015000Y-96273000D01*
X118055000Y-89916000D02*
X118055000Y-92051000D01*
X118055000Y-94131000D02*
X118055000Y-96266000D01*
X118095000Y-89924000D02*
X118095000Y-92051000D01*
X118095000Y-94131000D02*
X118095000Y-96258000D01*
X118135000Y-89932000D02*
X118135000Y-92051000D01*
X118135000Y-94131000D02*
X118135000Y-96250000D01*
X118176000Y-89941000D02*
X118176000Y-92051000D01*
X118176000Y-94131000D02*
X118176000Y-96241000D01*
X118216000Y-89950000D02*
X118216000Y-92051000D01*
X118216000Y-94131000D02*
X118216000Y-96232000D01*
X118256000Y-89960000D02*
X118256000Y-92051000D01*
X118256000Y-94131000D02*
X118256000Y-96222000D01*
X118296000Y-89970000D02*
X118296000Y-92051000D01*
X118296000Y-94131000D02*
X118296000Y-96212000D01*
X118336000Y-89981000D02*
X118336000Y-92051000D01*
X118336000Y-94131000D02*
X118336000Y-96201000D01*
X118376000Y-89993000D02*
X118376000Y-92051000D01*
X118376000Y-94131000D02*
X118376000Y-96189000D01*
X118416000Y-90005000D02*
X118416000Y-92051000D01*
X118416000Y-94131000D02*
X118416000Y-96177000D01*
X118456000Y-90017000D02*
X118456000Y-92051000D01*
X118456000Y-94131000D02*
X118456000Y-96165000D01*
X118496000Y-90030000D02*
X118496000Y-92051000D01*
X118496000Y-94131000D02*
X118496000Y-96152000D01*
X118536000Y-90044000D02*
X118536000Y-92051000D01*
X118536000Y-94131000D02*
X118536000Y-96138000D01*
X118576000Y-90058000D02*
X118576000Y-92051000D01*
X118576000Y-94131000D02*
X118576000Y-96124000D01*
X118616000Y-90073000D02*
X118616000Y-92051000D01*
X118616000Y-94131000D02*
X118616000Y-96109000D01*
X118656000Y-90089000D02*
X118656000Y-92051000D01*
X118656000Y-94131000D02*
X118656000Y-96093000D01*
X118696000Y-90105000D02*
X118696000Y-92051000D01*
X118696000Y-94131000D02*
X118696000Y-96077000D01*
X118736000Y-90121000D02*
X118736000Y-92051000D01*
X118736000Y-94131000D02*
X118736000Y-96061000D01*
X118776000Y-90139000D02*
X118776000Y-92051000D01*
X118776000Y-94131000D02*
X118776000Y-96043000D01*
X118816000Y-90157000D02*
X118816000Y-92051000D01*
X118816000Y-94131000D02*
X118816000Y-96025000D01*
X118856000Y-90175000D02*
X118856000Y-92051000D01*
X118856000Y-94131000D02*
X118856000Y-96007000D01*
X118896000Y-90195000D02*
X118896000Y-92051000D01*
X118896000Y-94131000D02*
X118896000Y-95987000D01*
X118936000Y-90215000D02*
X118936000Y-92051000D01*
X118936000Y-94131000D02*
X118936000Y-95967000D01*
X118976000Y-90235000D02*
X118976000Y-92051000D01*
X118976000Y-94131000D02*
X118976000Y-95947000D01*
X119016000Y-90257000D02*
X119016000Y-92051000D01*
X119016000Y-94131000D02*
X119016000Y-95925000D01*
X119056000Y-90279000D02*
X119056000Y-92051000D01*
X119056000Y-94131000D02*
X119056000Y-95903000D01*
X119096000Y-90301000D02*
X119096000Y-92051000D01*
X119096000Y-94131000D02*
X119096000Y-95881000D01*
X119136000Y-90325000D02*
X119136000Y-92051000D01*
X119136000Y-94131000D02*
X119136000Y-95857000D01*
X119176000Y-90349000D02*
X119176000Y-92051000D01*
X119176000Y-94131000D02*
X119176000Y-95833000D01*
X119216000Y-90375000D02*
X119216000Y-92051000D01*
X119216000Y-94131000D02*
X119216000Y-95807000D01*
X119256000Y-90401000D02*
X119256000Y-92051000D01*
X119256000Y-94131000D02*
X119256000Y-95781000D01*
X119296000Y-90427000D02*
X119296000Y-92051000D01*
X119296000Y-94131000D02*
X119296000Y-95755000D01*
X119336000Y-90455000D02*
X119336000Y-92051000D01*
X119336000Y-94131000D02*
X119336000Y-95727000D01*
X119376000Y-90484000D02*
X119376000Y-92051000D01*
X119376000Y-94131000D02*
X119376000Y-95698000D01*
X119416000Y-90513000D02*
X119416000Y-92051000D01*
X119416000Y-94131000D02*
X119416000Y-95669000D01*
X119456000Y-90543000D02*
X119456000Y-92051000D01*
X119456000Y-94131000D02*
X119456000Y-95639000D01*
X119496000Y-90575000D02*
X119496000Y-92051000D01*
X119496000Y-94131000D02*
X119496000Y-95607000D01*
X119536000Y-90607000D02*
X119536000Y-92051000D01*
X119536000Y-94131000D02*
X119536000Y-95575000D01*
X119576000Y-90641000D02*
X119576000Y-92051000D01*
X119576000Y-94131000D02*
X119576000Y-95541000D01*
X119616000Y-90675000D02*
X119616000Y-92051000D01*
X119616000Y-94131000D02*
X119616000Y-95507000D01*
X119656000Y-90711000D02*
X119656000Y-92051000D01*
X119656000Y-94131000D02*
X119656000Y-95471000D01*
X119696000Y-90748000D02*
X119696000Y-92051000D01*
X119696000Y-94131000D02*
X119696000Y-95434000D01*
X119736000Y-90786000D02*
X119736000Y-92051000D01*
X119736000Y-94131000D02*
X119736000Y-95396000D01*
X119776000Y-90826000D02*
X119776000Y-95356000D01*
X119816000Y-90867000D02*
X119816000Y-95315000D01*
X119856000Y-90909000D02*
X119856000Y-95273000D01*
X119896000Y-90954000D02*
X119896000Y-95228000D01*
X119936000Y-90999000D02*
X119936000Y-95183000D01*
X119976000Y-91047000D02*
X119976000Y-95135000D01*
X120016000Y-91096000D02*
X120016000Y-95086000D01*
X120056000Y-91147000D02*
X120056000Y-95035000D01*
X120096000Y-91201000D02*
X120096000Y-94981000D01*
X120136000Y-91257000D02*
X120136000Y-94925000D01*
X120176000Y-91315000D02*
X120176000Y-94867000D01*
X120216000Y-91377000D02*
X120216000Y-94805000D01*
X120256000Y-91441000D02*
X120256000Y-94741000D01*
X120296000Y-91510000D02*
X120296000Y-94672000D01*
X120336000Y-91582000D02*
X120336000Y-94600000D01*
X120376000Y-91659000D02*
X120376000Y-94523000D01*
X120416000Y-91741000D02*
X120416000Y-94441000D01*
X120456000Y-91829000D02*
X120456000Y-94353000D01*
X120496000Y-91926000D02*
X120496000Y-94256000D01*
X120536000Y-92032000D02*
X120536000Y-94150000D01*
X120576000Y-92151000D02*
X120576000Y-94031000D01*
X120616000Y-92289000D02*
X120616000Y-93893000D01*
X120656000Y-92458000D02*
X120656000Y-93724000D01*
X120696000Y-92689000D02*
X120696000Y-93493000D01*
X113954759Y-91252000D02*
X114584759Y-91252000D01*
X114269759Y-90937000D02*
X114269759Y-91567000D01*
X107008000Y-119180000D02*
X107008000Y-122120000D01*
X107008000Y-122120000D02*
X112448000Y-122120000D01*
X112448000Y-122120000D02*
X112448000Y-119180000D01*
X112448000Y-119180000D02*
X107008000Y-119180000D01*
X105988000Y-120650000D02*
X107008000Y-120650000D01*
X113468000Y-120650000D02*
X112448000Y-120650000D01*
X107908000Y-119180000D02*
X107908000Y-122120000D01*
X108028000Y-119180000D02*
X108028000Y-122120000D01*
X107788000Y-119180000D02*
X107788000Y-122120000D01*
X107008000Y-110036000D02*
X107008000Y-112976000D01*
X107008000Y-112976000D02*
X112448000Y-112976000D01*
X112448000Y-112976000D02*
X112448000Y-110036000D01*
X112448000Y-110036000D02*
X107008000Y-110036000D01*
X105988000Y-111506000D02*
X107008000Y-111506000D01*
X113468000Y-111506000D02*
X112448000Y-111506000D01*
X107908000Y-110036000D02*
X107908000Y-112976000D01*
X108028000Y-110036000D02*
X108028000Y-112976000D01*
X107788000Y-110036000D02*
X107788000Y-112976000D01*
X107788000Y-124133000D02*
X107788000Y-127073000D01*
X108028000Y-124133000D02*
X108028000Y-127073000D01*
X107908000Y-124133000D02*
X107908000Y-127073000D01*
X113468000Y-125603000D02*
X112448000Y-125603000D01*
X105988000Y-125603000D02*
X107008000Y-125603000D01*
X112448000Y-124133000D02*
X107008000Y-124133000D01*
X112448000Y-127073000D02*
X112448000Y-124133000D01*
X107008000Y-127073000D02*
X112448000Y-127073000D01*
X107008000Y-124133000D02*
X107008000Y-127073000D01*
X107788000Y-114862000D02*
X107788000Y-117802000D01*
X108028000Y-114862000D02*
X108028000Y-117802000D01*
X107908000Y-114862000D02*
X107908000Y-117802000D01*
X113468000Y-116332000D02*
X112448000Y-116332000D01*
X105988000Y-116332000D02*
X107008000Y-116332000D01*
X112448000Y-114862000D02*
X107008000Y-114862000D01*
X112448000Y-117802000D02*
X112448000Y-114862000D01*
X107008000Y-117802000D02*
X112448000Y-117802000D01*
X107008000Y-114862000D02*
X107008000Y-117802000D01*
X120630000Y-119486000D02*
X120630000Y-122576000D01*
X125690000Y-121031000D02*
G75*
G03X125690000Y-121031000I-2500000J0D01*
G01*
X126180000Y-121030538D02*
G75*
G02X120630000Y-122575830I-2990000J-462D01*
G01*
X126180000Y-121031462D02*
G75*
G03X120630000Y-119486170I-2990000J462D01*
G01*
X126180000Y-100203462D02*
G75*
G03X120630000Y-98658170I-2990000J462D01*
G01*
X126180000Y-100202538D02*
G75*
G02X120630000Y-101747830I-2990000J-462D01*
G01*
X125690000Y-100203000D02*
G75*
G03X125690000Y-100203000I-2500000J0D01*
G01*
X120630000Y-98658000D02*
X120630000Y-101748000D01*
X112421000Y-139093000D02*
X103421000Y-139093000D01*
X103421000Y-139093000D02*
X103421000Y-129893000D01*
X103421000Y-129893000D02*
X118021000Y-129893000D01*
X118021000Y-129893000D02*
X118021000Y-132693000D01*
X118021000Y-136293000D02*
X118021000Y-139093000D01*
X118021000Y-139093000D02*
X116021000Y-139093000D01*
X116521000Y-129653000D02*
X118261000Y-129653000D01*
X118261000Y-129653000D02*
X118261000Y-131393000D01*
X127194000Y-95437000D02*
X132394000Y-95437000D01*
X127194000Y-92837000D02*
X127194000Y-95437000D01*
X132394000Y-90237000D02*
X132394000Y-95437000D01*
X127194000Y-92837000D02*
X129794000Y-92837000D01*
X129794000Y-92837000D02*
X129794000Y-90237000D01*
X129794000Y-90237000D02*
X132394000Y-90237000D01*
X127194000Y-91567000D02*
X127194000Y-90237000D01*
X127194000Y-90237000D02*
X128524000Y-90237000D01*
X127194000Y-135195000D02*
X128524000Y-135195000D01*
X127194000Y-136525000D02*
X127194000Y-135195000D01*
X129794000Y-135195000D02*
X132394000Y-135195000D01*
X129794000Y-137795000D02*
X129794000Y-135195000D01*
X127194000Y-137795000D02*
X129794000Y-137795000D01*
X132394000Y-135195000D02*
X132394000Y-140395000D01*
X127194000Y-137795000D02*
X127194000Y-140395000D01*
X127194000Y-140395000D02*
X132394000Y-140395000D01*
X122150000Y-135223000D02*
X121820000Y-135223000D01*
X121820000Y-135223000D02*
X121820000Y-128683000D01*
X121820000Y-128683000D02*
X122150000Y-128683000D01*
X124230000Y-135223000D02*
X124560000Y-135223000D01*
X124560000Y-135223000D02*
X124560000Y-128683000D01*
X124560000Y-128683000D02*
X124230000Y-128683000D01*
X118591000Y-100362000D02*
X118261000Y-100362000D01*
X118591000Y-106902000D02*
X118591000Y-100362000D01*
X118261000Y-106902000D02*
X118591000Y-106902000D01*
X115851000Y-100362000D02*
X116181000Y-100362000D01*
X115851000Y-106902000D02*
X115851000Y-100362000D01*
X116181000Y-106902000D02*
X115851000Y-106902000D01*
D12*
X124782000Y-104697000D02*
X124782000Y-105197000D01*
X124782000Y-104697000D02*
X124282000Y-104697000D01*
X124782000Y-116597000D02*
X124782000Y-116097000D01*
X124782000Y-116597000D02*
X124282000Y-116597000D01*
X120582000Y-116597000D02*
X120582000Y-116097000D01*
X120582000Y-116597000D02*
X121082000Y-116597000D01*
X120582000Y-104697000D02*
X121082000Y-104697000D01*
X120582000Y-104697000D02*
X120582000Y-105197000D01*
D11*
X103465000Y-102648000D02*
X113705000Y-102648000D01*
X103465000Y-107289000D02*
X113705000Y-107289000D01*
X103465000Y-102648000D02*
X103465000Y-107289000D01*
X113705000Y-102648000D02*
X113705000Y-107289000D01*
X103465000Y-104158000D02*
X113705000Y-104158000D01*
X106735000Y-102648000D02*
X106735000Y-104158000D01*
X110436000Y-102648000D02*
X110436000Y-104158000D01*
D13*
X103973333Y-90273142D02*
X103925714Y-90320761D01*
X103782857Y-90368380D01*
X103687619Y-90368380D01*
X103544761Y-90320761D01*
X103449523Y-90225523D01*
X103401904Y-90130285D01*
X103354285Y-89939809D01*
X103354285Y-89796952D01*
X103401904Y-89606476D01*
X103449523Y-89511238D01*
X103544761Y-89416000D01*
X103687619Y-89368380D01*
X103782857Y-89368380D01*
X103925714Y-89416000D01*
X103973333Y-89463619D01*
X104925714Y-90368380D02*
X104354285Y-90368380D01*
X104640000Y-90368380D02*
X104640000Y-89368380D01*
X104544761Y-89511238D01*
X104449523Y-89606476D01*
X104354285Y-89654095D01*
X113117333Y-90400142D02*
X113069714Y-90447761D01*
X112926857Y-90495380D01*
X112831619Y-90495380D01*
X112688761Y-90447761D01*
X112593523Y-90352523D01*
X112545904Y-90257285D01*
X112498285Y-90066809D01*
X112498285Y-89923952D01*
X112545904Y-89733476D01*
X112593523Y-89638238D01*
X112688761Y-89543000D01*
X112831619Y-89495380D01*
X112926857Y-89495380D01*
X113069714Y-89543000D01*
X113117333Y-89590619D01*
X113498285Y-89590619D02*
X113545904Y-89543000D01*
X113641142Y-89495380D01*
X113879238Y-89495380D01*
X113974476Y-89543000D01*
X114022095Y-89590619D01*
X114069714Y-89685857D01*
X114069714Y-89781095D01*
X114022095Y-89923952D01*
X113450666Y-90495380D01*
X114069714Y-90495380D01*
X108989904Y-118632380D02*
X108989904Y-117632380D01*
X109228000Y-117632380D01*
X109370857Y-117680000D01*
X109466095Y-117775238D01*
X109513714Y-117870476D01*
X109561333Y-118060952D01*
X109561333Y-118203809D01*
X109513714Y-118394285D01*
X109466095Y-118489523D01*
X109370857Y-118584761D01*
X109228000Y-118632380D01*
X108989904Y-118632380D01*
X110513714Y-118632380D02*
X109942285Y-118632380D01*
X110228000Y-118632380D02*
X110228000Y-117632380D01*
X110132761Y-117775238D01*
X110037523Y-117870476D01*
X109942285Y-117918095D01*
X104386095Y-119002380D02*
X104386095Y-118002380D01*
X104957523Y-119002380D02*
X104528952Y-118430952D01*
X104957523Y-118002380D02*
X104386095Y-118573809D01*
X108989904Y-109488380D02*
X108989904Y-108488380D01*
X109228000Y-108488380D01*
X109370857Y-108536000D01*
X109466095Y-108631238D01*
X109513714Y-108726476D01*
X109561333Y-108916952D01*
X109561333Y-109059809D01*
X109513714Y-109250285D01*
X109466095Y-109345523D01*
X109370857Y-109440761D01*
X109228000Y-109488380D01*
X108989904Y-109488380D01*
X109942285Y-108583619D02*
X109989904Y-108536000D01*
X110085142Y-108488380D01*
X110323238Y-108488380D01*
X110418476Y-108536000D01*
X110466095Y-108583619D01*
X110513714Y-108678857D01*
X110513714Y-108774095D01*
X110466095Y-108916952D01*
X109894666Y-109488380D01*
X110513714Y-109488380D01*
X104386095Y-109858380D02*
X104386095Y-108858380D01*
X104957523Y-109858380D02*
X104528952Y-109286952D01*
X104957523Y-108858380D02*
X104386095Y-109429809D01*
X108989904Y-123585380D02*
X108989904Y-122585380D01*
X109228000Y-122585380D01*
X109370857Y-122633000D01*
X109466095Y-122728238D01*
X109513714Y-122823476D01*
X109561333Y-123013952D01*
X109561333Y-123156809D01*
X109513714Y-123347285D01*
X109466095Y-123442523D01*
X109370857Y-123537761D01*
X109228000Y-123585380D01*
X108989904Y-123585380D01*
X109894666Y-122585380D02*
X110513714Y-122585380D01*
X110180380Y-122966333D01*
X110323238Y-122966333D01*
X110418476Y-123013952D01*
X110466095Y-123061571D01*
X110513714Y-123156809D01*
X110513714Y-123394904D01*
X110466095Y-123490142D01*
X110418476Y-123537761D01*
X110323238Y-123585380D01*
X110037523Y-123585380D01*
X109942285Y-123537761D01*
X109894666Y-123490142D01*
X104386095Y-123955380D02*
X104386095Y-122955380D01*
X104957523Y-123955380D02*
X104528952Y-123383952D01*
X104957523Y-122955380D02*
X104386095Y-123526809D01*
X108989904Y-114314380D02*
X108989904Y-113314380D01*
X109228000Y-113314380D01*
X109370857Y-113362000D01*
X109466095Y-113457238D01*
X109513714Y-113552476D01*
X109561333Y-113742952D01*
X109561333Y-113885809D01*
X109513714Y-114076285D01*
X109466095Y-114171523D01*
X109370857Y-114266761D01*
X109228000Y-114314380D01*
X108989904Y-114314380D01*
X110418476Y-113647714D02*
X110418476Y-114314380D01*
X110180380Y-113266761D02*
X109942285Y-113981047D01*
X110561333Y-113981047D01*
X104386095Y-114684380D02*
X104386095Y-113684380D01*
X104957523Y-114684380D02*
X104528952Y-114112952D01*
X104957523Y-113684380D02*
X104386095Y-114255809D01*
X122451904Y-117523380D02*
X122451904Y-116523380D01*
X122690000Y-116523380D01*
X122832857Y-116571000D01*
X122928095Y-116666238D01*
X122975714Y-116761476D01*
X123023333Y-116951952D01*
X123023333Y-117094809D01*
X122975714Y-117285285D01*
X122928095Y-117380523D01*
X122832857Y-117475761D01*
X122690000Y-117523380D01*
X122451904Y-117523380D01*
X123928095Y-116523380D02*
X123451904Y-116523380D01*
X123404285Y-116999571D01*
X123451904Y-116951952D01*
X123547142Y-116904333D01*
X123785238Y-116904333D01*
X123880476Y-116951952D01*
X123928095Y-116999571D01*
X123975714Y-117094809D01*
X123975714Y-117332904D01*
X123928095Y-117428142D01*
X123880476Y-117475761D01*
X123785238Y-117523380D01*
X123547142Y-117523380D01*
X123451904Y-117475761D01*
X123404285Y-117428142D01*
X122451904Y-96695380D02*
X122451904Y-95695380D01*
X122690000Y-95695380D01*
X122832857Y-95743000D01*
X122928095Y-95838238D01*
X122975714Y-95933476D01*
X123023333Y-96123952D01*
X123023333Y-96266809D01*
X122975714Y-96457285D01*
X122928095Y-96552523D01*
X122832857Y-96647761D01*
X122690000Y-96695380D01*
X122451904Y-96695380D01*
X123880476Y-95695380D02*
X123690000Y-95695380D01*
X123594761Y-95743000D01*
X123547142Y-95790619D01*
X123451904Y-95933476D01*
X123404285Y-96123952D01*
X123404285Y-96504904D01*
X123451904Y-96600142D01*
X123499523Y-96647761D01*
X123594761Y-96695380D01*
X123785238Y-96695380D01*
X123880476Y-96647761D01*
X123928095Y-96600142D01*
X123975714Y-96504904D01*
X123975714Y-96266809D01*
X123928095Y-96171571D01*
X123880476Y-96123952D01*
X123785238Y-96076333D01*
X123594761Y-96076333D01*
X123499523Y-96123952D01*
X123451904Y-96171571D01*
X123404285Y-96266809D01*
X108437666Y-139695380D02*
X108437666Y-140409666D01*
X108390047Y-140552523D01*
X108294809Y-140647761D01*
X108151952Y-140695380D01*
X108056714Y-140695380D01*
X109437666Y-140695380D02*
X108866238Y-140695380D01*
X109151952Y-140695380D02*
X109151952Y-139695380D01*
X109056714Y-139838238D01*
X108961476Y-139933476D01*
X108866238Y-139981095D01*
X130476666Y-89241380D02*
X130476666Y-89955666D01*
X130429047Y-90098523D01*
X130333809Y-90193761D01*
X130190952Y-90241380D01*
X130095714Y-90241380D01*
X130905238Y-89336619D02*
X130952857Y-89289000D01*
X131048095Y-89241380D01*
X131286190Y-89241380D01*
X131381428Y-89289000D01*
X131429047Y-89336619D01*
X131476666Y-89431857D01*
X131476666Y-89527095D01*
X131429047Y-89669952D01*
X130857619Y-90241380D01*
X131476666Y-90241380D01*
X129206666Y-139914380D02*
X129206666Y-140628666D01*
X129159047Y-140771523D01*
X129063809Y-140866761D01*
X128920952Y-140914380D01*
X128825714Y-140914380D01*
X129587619Y-139914380D02*
X130206666Y-139914380D01*
X129873333Y-140295333D01*
X130016190Y-140295333D01*
X130111428Y-140342952D01*
X130159047Y-140390571D01*
X130206666Y-140485809D01*
X130206666Y-140723904D01*
X130159047Y-140819142D01*
X130111428Y-140866761D01*
X130016190Y-140914380D01*
X129730476Y-140914380D01*
X129635238Y-140866761D01*
X129587619Y-140819142D01*
X121272380Y-132119666D02*
X120796190Y-132453000D01*
X121272380Y-132691095D02*
X120272380Y-132691095D01*
X120272380Y-132310142D01*
X120320000Y-132214904D01*
X120367619Y-132167285D01*
X120462857Y-132119666D01*
X120605714Y-132119666D01*
X120700952Y-132167285D01*
X120748571Y-132214904D01*
X120796190Y-132310142D01*
X120796190Y-132691095D01*
X121272380Y-131167285D02*
X121272380Y-131738714D01*
X121272380Y-131453000D02*
X120272380Y-131453000D01*
X120415238Y-131548238D01*
X120510476Y-131643476D01*
X120558095Y-131738714D01*
X115303380Y-103798666D02*
X114827190Y-104132000D01*
X115303380Y-104370095D02*
X114303380Y-104370095D01*
X114303380Y-103989142D01*
X114351000Y-103893904D01*
X114398619Y-103846285D01*
X114493857Y-103798666D01*
X114636714Y-103798666D01*
X114731952Y-103846285D01*
X114779571Y-103893904D01*
X114827190Y-103989142D01*
X114827190Y-104370095D01*
X114398619Y-103417714D02*
X114351000Y-103370095D01*
X114303380Y-103274857D01*
X114303380Y-103036761D01*
X114351000Y-102941523D01*
X114398619Y-102893904D01*
X114493857Y-102846285D01*
X114589095Y-102846285D01*
X114731952Y-102893904D01*
X115303380Y-103465333D01*
X115303380Y-102846285D01*
X120066761Y-111840333D02*
X120114380Y-111697476D01*
X120114380Y-111459380D01*
X120066761Y-111364142D01*
X120019142Y-111316523D01*
X119923904Y-111268904D01*
X119828666Y-111268904D01*
X119733428Y-111316523D01*
X119685809Y-111364142D01*
X119638190Y-111459380D01*
X119590571Y-111649857D01*
X119542952Y-111745095D01*
X119495333Y-111792714D01*
X119400095Y-111840333D01*
X119304857Y-111840333D01*
X119209619Y-111792714D01*
X119162000Y-111745095D01*
X119114380Y-111649857D01*
X119114380Y-111411761D01*
X119162000Y-111268904D01*
X119114380Y-110935571D02*
X120114380Y-110697476D01*
X119400095Y-110507000D01*
X120114380Y-110316523D01*
X119114380Y-110078428D01*
X120114380Y-109173666D02*
X120114380Y-109745095D01*
X120114380Y-109459380D02*
X119114380Y-109459380D01*
X119257238Y-109554619D01*
X119352476Y-109649857D01*
X119400095Y-109745095D01*
X107823095Y-101100380D02*
X107823095Y-101909904D01*
X107870714Y-102005142D01*
X107918333Y-102052761D01*
X108013571Y-102100380D01*
X108204047Y-102100380D01*
X108299285Y-102052761D01*
X108346904Y-102005142D01*
X108394523Y-101909904D01*
X108394523Y-101100380D01*
X109394523Y-102100380D02*
X108823095Y-102100380D01*
X109108809Y-102100380D02*
X109108809Y-101100380D01*
X109013571Y-101243238D01*
X108918333Y-101338476D01*
X108823095Y-101386095D01*
M02*
